<?xml version="1.0"?><svg viewBox="0 0 1000 1000" xmlns="http://www.w3.org/2000/svg"><path d="m783.63 726.33c-4.64-39.4-18.42-78.61-46.89-107.19-14.62-14.66-32-26.24-49.45-37.16-19.84-12.38-39.83-24.53-59.75-36.78l-68.87-42.35a1 1 0 0 0 -1 0l-50.85 30.44-4.95 3c-.32.19-2.17 1-2.26 1.35s.76.16.72 0-.69-.41-.82-.5c-1.15-.81-2.45-1.46-3.65-2.18l-29.82-17.85-23.79-14.24a1 1 0 0 0 -1 0q-62.24 38.26-124.45 76.54c-17.82 11-35.62 22.49-50.83 37a151.51 151.51 0 0 0 -34.47 50.39c-17.6 41.3-18.79 86.88-16.12 131q1.09 18 2.72 36c.35 3.94 1.13 7.85 5 9.72 4.3 2.06 10 2 14.69 2.52q35.76 4.26 71.78 5.54 36.27 1.29 72.55-.42 18-.84 35.93-2.43c10.81-1 21.59-2.57 32.42-3.2 5.24-.3 10.49-.43 15.74-.52l-.93-.71.39 1.94a1 1 0 0 0 .92.7 310.64 310.64 0 0 1 66.6 0 .94.94 0 0 0 .92-.7l.39-1.94-.93.71c22.78.39 45.33 3.76 68.05 5.25q36.75 2.42 73.64 1.72t73.52-4.47q9.36-1 18.71-2.14c4-.49 9-.54 11.82-3.79s2.52-9.16 2.86-13.32q.78-9.42 1.48-18.86c2-27.67 3-55.52-.13-83.16-.14-1.21-2.06-1.22-1.92 0 2.7 23.75 2.35 47.69.91 71.51-.71 11.84-1.67 23.67-2.67 35.49-.25 3-.46 6.52-3.39 8.24-2.62 1.54-6 1.61-9 2q-8.79 1.1-17.61 2a874.51 874.51 0 0 1 -142.18 3.24c-24.75-1.45-49.34-5.2-74.13-5.63a1 1 0 0 0 -.92.7c-.13.65-.25 1.29-.38 1.94l.92-.71a312.38 312.38 0 0 0 -66.6 0l.92.71c-.13-.65-.25-1.29-.38-1.94a1 1 0 0 0 -.92-.7c-13.24.23-26.18 1.59-39.34 2.9q-22.05 2.17-44.19 3.23a877.26 877.26 0 0 1 -89.71-.31q-22.4-1.23-44.72-3.6c-3.49-.37-7-.77-10.46-1.18-3.93-.47-8.13-.61-12-1.66-4.3-1.17-5.42-4.16-5.82-8.25-.37-3.82-.64-7.67-.95-11.5-2.41-29.86-4.33-59.95-1.58-89.85 2.41-26.19 8.6-52.35 20.61-75.86a145.53 145.53 0 0 1 21.69-31.65 188.56 188.56 0 0 1 30.39-26.37c10.8-7.72 22.11-14.69 33.41-21.64l38.73-23.82 77-47.35c.12-.07 2.55-1.72 1.95-1.74.1 0 .2.16.29.18a6.12 6.12 0 0 1 1.39.82l5.29 3.17 16.77 10 32.41 19.4 2 1.2a1 1 0 0 0 1 0l33-19.73 19.78-11.85c1.46-.87 3.36-2.57 5-3 .12 0 .26-.23.38-.23-.6 0 1.84 1.67 2 1.74l12.51 7.78 92.78 57.08c27.68 17 57 33.56 78.13 58.85 22.59 27.08 33.73 61.92 37.8 96.51.14 1.18 2.06 1.19 1.92-.03z"/><path d="m782.67 726.33c-4.13-35.68-15.9-71.37-39.3-98.62-18.31-21.32-42.65-36.38-66.58-51.1l-118.6-72.93-58.19 34.83-58.19-34.83-118.6 72.93c-23.93 14.72-48.27 29.78-66.58 51.1-23.4 27.25-35.17 62.94-39.3 98.62s-1.16 71.76 1.81 107.56c.21 2.55.5 5.29 2.2 7.2 1.88 2.13 4.95 2.63 7.76 3a874.89 874.89 0 0 0 214.4 1.15c5-.59 13.22-.94 22.82-1.1.13.64.25 1.29.38 1.93 6.7-.84 19.36-1.46 33.3-1.78 13.94.32 26.6.94 33.3 1.78.13-.64.25-1.29.38-1.93 9.6.16 17.85.51 22.82 1.1a874.89 874.89 0 0 0 214.4-1.15c2.81-.37 5.88-.87 7.76-3 1.7-1.91 2-4.65 2.2-7.2 2.97-35.8 5.94-71.89 1.81-107.56z"/><path d="m48.17 835.55a603 603 0 0 1 51.06-201.33c5.94-13.22 13.59-27.39 27.2-32.34 2.23-.81 4.65-1.4 6.37-3 2.31-2.2 2.71-5.66 3.54-8.75 3.89-14.48 19.52-23.34 34.51-24s29.45 5.06 43.18 11.08c7.62 3.35 15.5 7.05 20.6 13.62s6.37 16.89.57 22.86c9.85 5 15.68 15.8 17.65 26.68s.65 22-.36 33a600.69 600.69 0 0 0 7.11 161.7c.76 4.2 1.56 8.58.36 12.68s-5.09 7.75-9.31 7.12"/><path d="m49 835.55a607.35 607.35 0 0 1 38-168.35c5-13 10.16-26 16.37-38.48 4.94-9.93 11.5-20.36 22.11-24.9 2.65-1.14 5.61-1.66 7.89-3.52s3.22-4.85 3.9-7.68a28.8 28.8 0 0 1 7.51-14c8.17-8.25 20.07-11.61 31.45-11 14.22.74 27.91 6.6 40.68 12.5 5.64 2.61 11.3 5.65 15.49 10.36a19.38 19.38 0 0 1 5 15.12 12.51 12.51 0 0 1 -3.24 6.94 1.58 1.58 0 0 0 .32 2.47c13 6.78 17.56 22.18 17.83 35.9.16 8.64-.94 17.24-1.69 25.83q-1.11 12.63-1.68 25.31a597.29 597.29 0 0 0 4.26 102.95c1.22 9.47 2.77 18.89 4.5 28.28.84 4.55 2.19 9.5.87 14.09-1 3.47-4.08 6.66-7.92 6.22-1.66-.19-1.64 2.4 0 2.59a9.57 9.57 0 0 0 8.37-3.74c2.42-2.95 3.16-6.71 3-10.45-.17-4.32-1.19-8.62-1.89-12.88-.73-4.45-1.41-8.92-2-13.38-2.5-17.72-4.39-35.51-5.41-53.38s-1.25-35.69-.69-53.53q.42-13.53 1.44-27c.68-9 1.85-17.95 2-27 .16-8.77-.82-17.59-4.38-25.68-3.1-7-8.19-13.29-15.08-16.86l.32 2.48c3.94-4.2 4.93-10 3.83-15.55-1.2-6-4.89-11-9.61-14.68-5.16-4.08-11.21-6.74-17.2-9.34a164.6 164.6 0 0 0 -20.8-7.77c-12.65-3.57-26.11-4.33-38.31 1.18a37.31 37.31 0 0 0 -13.45 10 29.86 29.86 0 0 0 -4.38 7c-1.2 2.73-1.7 5.58-2.55 8.41a8.37 8.37 0 0 1 -2.08 3.83 12.1 12.1 0 0 1 -4.45 2.22 34.45 34.45 0 0 0 -7.71 3.65 44.5 44.5 0 0 0 -12 12.1 100.48 100.48 0 0 0 -8.69 15.82c-3 6.58-5.84 13.26-8.57 20a598.79 598.79 0 0 0 -42.1 173c-.34 3.64-.63 7.29-.9 10.93-.08 1 1.52 1 1.6 0z"/><path d="m604.45 542.91c-7-10.28-20.62-14-28.72-23.42-8.23-9.58-9.32-23.21-9.71-35.84a741.71 741.71 0 0 1 4.44-106.65l-71.31 5.69-71.31-5.69a741.71 741.71 0 0 1 4.44 106.62c-.39 12.63-1.48 26.26-9.71 35.84s-21.73 13.14-28.72 23.42c-6 8.87-5.63 20.92-1.64 30.89 20.28 50.62 81.38 101.27 137.53 77.8 32-13.38 63.47-45.64 76.35-77.8 3.99-9.94 4.4-21.99-1.64-30.86z" fill="#fff"/><path d="m568.6 423.09q.33-3.76.69-7.5l-29.08-8.71-41.06 3.28-71.31-5.69a741.88 741.88 0 0 1 4.73 91.62 52 52 0 0 0 11.87 1.25c21.31-.07 41.23-10.26 59.19-21.72a375.13 375.13 0 0 0 64.97-52.53z"/><path d="m605.28 542.42c-5.6-8.08-14.77-12.13-22.47-17.8a34 34 0 0 1 -10.11-11.28 47.26 47.26 0 0 1 -4.7-15.42 143.55 143.55 0 0 1 -1.13-16.71q-.27-9.88-.27-19.78 0-19.94 1.05-39.83 1.18-22.34 3.73-44.57a1 1 0 0 0 -1-.95l-24.13 1.92-38.36 3.05c-2.85.23-5.77.65-8.63.69-1.87 0-3.81-.28-5.67-.43l-36.59-2.91c-9.53-.76-19.08-1.77-28.63-2.29h-.49a1 1 0 0 0 -1 .95q3.66 32.19 4.53 64.61.42 16.13.14 32.26c-.16 9.42-.08 19.08-2.06 28.34a41.41 41.41 0 0 1 -4.41 12 32.87 32.87 0 0 1 -8.21 9.29c-6.19 4.91-13.49 8.28-19.32 13.67a29 29 0 0 0 -9.25 22c.07 8.3 3.15 15.9 6.73 23.24a148.88 148.88 0 0 0 27.91 39.08c11.4 11.56 24.71 21.48 39.53 28.2 14.16 6.43 29.81 9.86 45.38 8.33 16.66-1.64 32-9.12 45.53-18.62a161.77 161.77 0 0 0 38.53-38.29 132.39 132.39 0 0 0 13.19-22.65c3.54-7.83 5.81-16.08 4.52-24.74a28 28 0 0 0 -4.34-11.38c-.68-1-2.34-.06-1.66 1 10.27 15.37.93 34.2-7.52 48a158.41 158.41 0 0 1 -35.35 40.11c-13 10.52-28.07 19.77-44.53 23.34-15.11 3.28-30.81 1.53-45.26-3.68-15-5.43-28.72-14.38-40.53-25.08a150.39 150.39 0 0 1 -29.82-37.09c-7.67-13.54-15.93-31.63-5.59-46.08 4.59-6.43 11.89-10.17 18.32-14.46a51.64 51.64 0 0 0 8.84-7.1 33.3 33.3 0 0 0 6.53-10.11c3.29-7.78 4.08-16.38 4.42-24.73.43-10.34.5-20.7.42-31q-.24-31.57-3.16-63.06-.72-7.69-1.59-15.37l-1 1 24.21 1.93 38.4 2.98c2.85.23 5.76.65 8.63.69 1.87 0 3.81-.29 5.67-.44l36.63-2.92 18.54-1.48c3.32-.26 6.79-.27 10.09-.8a4 4 0 0 1 .49 0l-1-1a746.16 746.16 0 0 0 -4.77 80.33q0 10 .17 20.06c.13 5.82.24 11.67.85 17.46 1.1 10.35 4 20.71 11.92 28 8.1 7.49 19.52 11.24 26 20.53.69.97 2.37.01 1.65-1.01z"/><path d="m608.31 300.19c.35-5.7 7.27-9.91 12.5-7.59 3.91 1.74 6 6 7.18 10.12 4.33 15.67-2.24 33.74-15.62 43-2.38 1.64-5.08 3.06-8 3.09s-6-1.7-6.66-4.52" fill="#fff"/><path d="m609 300.19c.55-5.28 7.2-8.94 11.9-6.36 5.17 2.85 6.69 10.23 7.14 15.61a40 40 0 0 1 -11.74 31.56c-2.51 2.44-5.5 4.89-8.83 6.06-3.11 1.09-7.58.62-8.63-3.1a1.14 1.14 0 0 0 -2.2.61 7.82 7.82 0 0 0 7.24 5.33c3.9.24 7.54-2 10.52-4.3a40.35 40.35 0 0 0 12.38-15.91 42.09 42.09 0 0 0 3.54-19.89c-.47-6.27-2.27-14.53-8.33-17.79s-14 1.42-14.39 8.18c-.06.94 1.34.91 1.43 0z"/><path d="m619.46 307.18c-1-2-3.76-.3-4.78.79-1.73 1.86-2.65 4.5-3.46 6.86a47.29 47.29 0 0 0 -2.17 18 1.14 1.14 0 0 0 2.11.57 7.57 7.57 0 0 0 1.23-3.78 7.21 7.21 0 0 0 -.13-1.91c0-.17-.44-1.69-.54-1.57.74-.93-.19-2.49-1.37-1.77s-1.09 2-.68 3.22a5.83 5.83 0 0 1 -.47 4.67l2.07.27a36.6 36.6 0 0 1 .8-14.17 39.13 39.13 0 0 1 2.13-6.52 10.79 10.79 0 0 1 1.48-2.6c.29-.34 2.09-2.1 2.52-1.28s1.66.1 1.26-.74z"/><path d="m391.19 300.19c-.35-5.7-7.27-9.91-12.49-7.59-3.91 1.74-6 6-7.18 10.12-4.33 15.67 2.23 33.74 15.61 43 2.39 1.64 5.08 3.06 8 3.09s6-1.7 6.65-4.52" fill="#fff"/><path d="m391.91 300.19a10.24 10.24 0 0 0 -12.31-9c-6.85 1.7-9.32 10.07-10.15 16.17a42 42 0 0 0 13.75 36.7c3.06 2.65 6.71 5.3 10.83 5.78 3.73.43 7.76-1.49 8.83-5.27a1.14 1.14 0 0 0 -2.19-.61c-.89 3.14-4.52 4.12-7.39 3.46-3.19-.73-6-2.85-8.48-5a38.91 38.91 0 0 1 -10.14-13.9 39.9 39.9 0 0 1 -3.34-17c.15-5.51 1.26-12.48 5.46-16.45a7.66 7.66 0 0 1 8.33-1.55 8.41 8.41 0 0 1 5.36 6.59c.1.91 1.5.94 1.44 0z"/><path d="m381.31 307.92c.42-.82 2.23.94 2.52 1.28a10.79 10.79 0 0 1 1.48 2.6 39.13 39.13 0 0 1 2.13 6.52 36.79 36.79 0 0 1 .8 14.17l2.06-.27a5.82 5.82 0 0 1 -.46-4.67c.4-1.23.57-2.45-.69-3.22s-2.11.83-1.36 1.77c-.1-.12-.46 1.14-.51 1.37a7.89 7.89 0 0 0 -.17 2.11 7.58 7.58 0 0 0 1.24 3.78 1.14 1.14 0 0 0 2.11-.57 47.49 47.49 0 0 0 -2.17-18c-.8-2.32-1.7-4.88-3.35-6.74-1-1.12-3.87-3-4.89-.91-.41.84.82 1.58 1.26.74z"/><path d="m611.66 244.84c-4-32.52-26.06-60.12-55.17-74.14-24.69-11.89-53.34-14.28-80.32-9.47-21.3 3.79-42.1 12.14-58.49 26.25-47.77 41.14-27.57 112.16-19.62 166.11 3 20.47 6.22 41.69 17.53 59 13.1 20.08 35.19 32.13 56.37 43.38 7.8 4.14 15.89 8.37 24.69 9.06 12.21.95 23.78-5 34.58-10.79 16.08-8.61 32.51-17.49 44.61-31.14 12.57-14.17 19.53-32.53 23.44-51.06s5-37.52 7.38-56.31c2.96-23.52 7.87-47.64 5-70.89z" fill="#fff"/><path d="m612.62 244.84c-3.21-25.45-17.35-48.31-37.62-63.84-23.24-17.83-53.26-24.62-82.15-22.76-28.67 1.85-58.46 11.59-79.48 31.84a84.17 84.17 0 0 0 -19.37 28.85 111.54 111.54 0 0 0 -7.47 33.68c-1.85 24.25 1.93 48.59 5.93 72.43q3 18 5.81 36c2.26 14.66 5.07 29.47 11.49 43 12.42 26.08 38.25 40.34 62.72 53.29 6.72 3.55 13.7 7.12 21.3 8.32s15-.25 22-2.93 13.83-6.46 20.53-10.08c6.53-3.53 13-7.16 19.24-11.23 12.25-8 22.9-17.91 30.43-30.57s12-27 14.85-41.42c3.24-16.56 4.42-33.41 6.4-50.14s5.07-33.34 6-50.18a137.49 137.49 0 0 0 -.59-24.26c-.15-1.21-2.06-1.23-1.92 0 2 16.37.22 32.87-2 49.12-1.1 8.05-2.32 16.08-3.29 24.14-1 8.23-1.77 16.49-2.69 24.73-3.27 29.44-9 61.11-30.73 83-10.29 10.35-23 17.77-35.78 24.68-12.93 7-27.41 15.95-42.77 13.17-7.5-1.36-14.33-5-21-8.51-6.06-3.21-12.11-6.45-18-9.93-11.74-6.9-23.12-14.83-32.06-25.22-18.68-21.69-20.7-51-25.16-78-3.86-23.4-8.44-46.81-9.17-70.59-.7-22.68 2.34-46.23 14.89-65.65 14.92-23.08 41-36.54 67.23-42.37 29-6.44 60.69-4.56 87.47 8.92 22.29 11.22 40.52 30.75 48.81 54.43a87 87 0 0 1 4.27 18.09c.12 1.15 2.03 1.21 1.88-.01z"/><path d="m612.37 266.69-16 3.41a102.44 102.44 0 0 0 4.3 50.62 29 29 0 0 0 4.45 8.81c.48-4.6 1-9.19 1.56-13.78 2.02-16.24 4.99-32.75 5.69-49.06z"/><path d="m394.18 329.8a28.57 28.57 0 0 0 4.67-9.08 102.32 102.32 0 0 0 4.3-50.62l-16.15-3.44c.14 20.97 3.71 42.7 7.18 63.14z"/><path d="m457.14 325.34a4.2 4.2 0 0 0 -3.6.45 3.18 3.18 0 0 0 -1.35 3.52 2.68 2.68 0 0 0 3.33 1.82 4.28 4.28 0 0 0 2.58-2.85 3.84 3.84 0 0 0 -.45-3.39 2.61 2.61 0 0 0 -4-.13 6.1 6.1 0 0 0 -1.46 3.89 2.92 2.92 0 0 0 .68 2.33 2.43 2.43 0 0 0 2.37.58c1.67-.49 2.16-2.24 2.25-3.79s-.16-3.26-1.5-4.06a2.1 2.1 0 0 0 -2.82.67 4.69 4.69 0 0 0 -.68 1.86 6.2 6.2 0 0 0 .55 4.15 3 3 0 0 0 3.9 1.39 4 4 0 0 0 1.9-3.44 6.42 6.42 0 0 0 -.94-3.87c-.82-1.34-2.52-2.48-4.06-1.49a5.33 5.33 0 0 0 -1.94 3.87 5.26 5.26 0 0 0 1 3.91 2.9 2.9 0 0 0 2 1.06 2.43 2.43 0 0 0 2.1-1 5.33 5.33 0 0 0 .65-3.84 10.12 10.12 0 0 0 -.42-2.18 1.5 1.5 0 0 0 -1.81-1 2.13 2.13 0 0 0 -1.48 2.55 1.33 1.33 0 0 0 1.47 1 1.35 1.35 0 0 0 1.17-1.32c0 .36-.26.66-.77.69l-1.42-1.08a8.9 8.9 0 0 1 .31 1.43c0-.38 0 0 0 .09s0 .16 0 .24v.86a3.16 3.16 0 0 0 0 .61s.07-.37 0-.13l-.06.25v.08q-.09.23.06-.12a.68.68 0 0 0 -.12.22l.13-.18-.11.11c.2-.14.23-.17.1-.1l.2-.08c-.3.1.35 0 .05 0h.23c-.15 0-.11 0 .12.07h-.08c-.13-.09-.1-.06.08.08 0 0-.18-.17-.21-.2-.22-.21.13.21 0 0s-.09-.13-.13-.21v-.08q-.1-.23 0 .09s-.1-.34-.11-.38 0-.2-.07-.3c-.08-.35 0 .34 0 0 0-.17 0-.35 0-.52s0-.21 0-.31v-.16c0-.16 0-.13 0 .09-.06-.11.09-.48.13-.61s.06-.2.1-.3v-.1.07a1.65 1.65 0 0 1 .3-.55v-.09c.08-.1.07-.1 0 0l-.06.07.13-.14-.16.12c.14-.08.1-.08-.1 0 .16 0 .11 0-.13 0s-.29 0-.13 0-.27-.2 0 0l.08.05c.11.08.11.08 0 0l-.07-.06.14.14.07.07c.11.13.09.1-.05-.07.12 0 .28.43.33.54a.82.82 0 0 1 .14.28c-.07-.18-.09-.22 0-.12l.06.15a4.24 4.24 0 0 1 .17.61c0 .05.09.26.06.31v-.19.21a4.51 4.51 0 0 1 0 .52v.32s0 .13 0-.09a1.55 1.55 0 0 0 0 .21c0 .16-.09.31-.14.47s.18-.33 0-.06l-.13.23c-.15.27.24-.22 0 0l-.06.06c-.12.1-.08.08.1-.07h-.07c-.14.07-.09.06.13 0h-.12.19-.09.16-.08c-.15 0-.1 0 .13.06a1.07 1.07 0 0 0 -.21-.13c.27.1.2.17.05 0a1.27 1.27 0 0 0 -.11-.13l.13.17a.86.86 0 0 1 -.1-.16c-.05-.07-.08-.16-.13-.24l.05.11a.49.49 0 0 1 -.06-.17 3.14 3.14 0 0 1 -.12-.51c-.05-.23 0 .38 0 0 0-.12 0-.23 0-.34s0-.45 0-.68-.07.32 0 0c0-.11.05-.22.07-.33a6.17 6.17 0 0 1 .2-.65c.12-.37-.15.29 0 0l.05-.08a.83.83 0 0 1 -.56.42 1.06 1.06 0 0 1 -.5 0l-.23-.1c.13.09.09.06-.11-.09.22.19-.16-.3 0 0l.09.16c-.09-.22-.11-.26-.05-.11s.08.34.11.52c.08.39 0-.32 0 .07v.36a5.77 5.77 0 0 1 0 .72v.06c0 .18 0 .16 0 0a1.28 1.28 0 0 1 -.06.33c0 .1-.05.19-.08.29v.09c-.05.16 0 .13 0-.09a2.15 2.15 0 0 1 -.14.26l.12-.16c-.12.12-.09.1.1-.05a1.37 1.37 0 0 0 -.14.08l.2-.09h.16-.08.17c-.15-.05-.11 0 .14.07a.77.77 0 0 1 .31.31c-.17-.26.09.34 0 0 .09.37 0 .23 0 .12s0-.44 0-.66 0-.24 0-.35c-.08.39 0 0 0-.07.05-.23.1-.46.17-.69a1 1 0 0 0 .1-.28l-.08.19.08-.17c.05-.09.1-.16.15-.24.15-.28-.24.22 0 0l.12-.13c.2-.22-.29.15 0 0s.35-.13-.05 0c.16 0 .11 0-.15 0 .16 0 .12 0-.13 0a.8.8 0 0 0 .21 0c-.24 0-.29-.13-.16 0-.35-.22-.18-.14-.09-.05s-.17-.31-.05-.07 0 .23 0-.09a1.42 1.42 0 0 0 .07.22 1.33 1.33 0 0 0 .05.19v-.18.16s0 .37 0 .55c0-.38 0-.19 0-.06a2 2 0 0 1 -.08.26c0 .09-.06.37 0 0a1.2 1.2 0 0 1 -.17.34l-.15.24c-.09.12-.07.1 0 0l-.12.14-.13.12-.13.12c.15-.11.17-.13 0-.05h-.07c-.13.06-.1.06.08 0l-.15.05h.1-.25.17l-.17-.05.14.06-.14-.09c.13.11.15.11.05 0s-.08-.08 0 .05a.71.71 0 0 1 -.13-.22c.06.15.06.17 0 0v-.08-.09c0-.13 0-.11 0 .05-.06-.05.07-.45 0-.14a1.47 1.47 0 0 1 .4-.73 2.1 2.1 0 0 1 .81-.57 2.83 2.83 0 0 1 1.32-.15.73.73 0 0 0 .73-.64.76.76 0 0 0 -.53-.81z"/><path d="m448.84 332a95.39 95.39 0 0 1 12.64.73.84.84 0 0 0 .82-.82.85.85 0 0 0 -.82-.82 73.1 73.1 0 0 0 -12.64-.39.65.65 0 0 0 0 1.3z"/><path d="m442.16 300.2a115.49 115.49 0 0 1 26.1-2.32c-.34-2.1-2.81-3.05-4.91-3.37a32.23 32.23 0 0 0 -21.79 4.43.65.65 0 0 0 .8.31"/><path d="m442.16 302.42a109.05 109.05 0 0 1 26.1-.25 4 4 0 0 0 3.37-1.69 4.46 4.46 0 0 0 .77-3.74c-.5-3.31-3.79-5.42-6.75-6.26a27.8 27.8 0 0 0 -9-.73c-6.31.39-12.88 2.21-17.49 6.78a3.43 3.43 0 0 0 .69 5.34 3.94 3.94 0 0 0 4.06 0c2.37-1.19 1.76-5-.73-5.63l-.28-.07 1.41.82-.22-.19.85 1.45-.1-.26-2.37 4.19c2-.68 4.35-1.55 6.7-2.13 1.15-.29 2.28-.66 3.45-.92.55-.12 1.1-.23 1.65-.32.08 0 .93-.13.45-.07s.7-.07.67-.07a34.05 34.05 0 0 1 6.92.11c.24 0 1.16.23.18 0l.65.12c.44.1.85.25 1.28.38-.36-.11-.6-.08-.16 0l.27.16c-.41-.35-.5-.42-.26-.21.37.43-.38-.69-.11-.19s-.31-1 0 0l4.14-5.44a130.41 130.41 0 0 0 -26.69 4.49c-2.29.67-2 4.65.59 4.35z"/><path d="m542.56 326.79a2.63 2.63 0 0 1 1.12.09l.3.1h.06s.18.09.27.15l.17.12c-.08-.06-.07-.06 0 0a3.89 3.89 0 0 1 .38.43c0 .08.1.16.14.24.14.24 0-.19 0 .08 0 .06.05.35 0 .06v.26c0-.16 0-.18 0-.05v.09.08c0 .13 0 .11 0 0a1 1 0 0 1 -.13.22l.08-.11-.12.12.12-.08-.15.09c.06.05.25-.12 0 0s.31 0 .05 0h-.09.1-.16c-.13-.05-.1 0 .08 0 0 0-.22-.11-.22-.13l.13.1-.14-.12-.12-.12-.07-.07v.05c-.12-.07-.23-.37-.29-.49l-.05-.08q-.09-.21 0 .06a.89.89 0 0 0 -.09-.26l-.06-.26c-.07-.27 0 .36 0 .07a3.85 3.85 0 0 1 0-.48c0-.05 0-.32 0-.05s0 0 0-.05.05-.14.07-.22c.07-.24-.16.35 0 0s-.25.23-.06.07.21-.21 0 0l-.09.07c.13-.07.07-.06-.17 0a.79.79 0 0 0 .22 0h-.22c.16 0 .11 0-.15 0 .29.06-.28-.2 0 0h.07c.13.09.1.06-.09-.08a1.7 1.7 0 0 0 .19.19c.22.23-.16-.28 0 0 0 .08.1.15.14.24v.08c.07.15.06.11 0-.1 0 .05.09.23.1.28s.11.38.15.57a1.51 1.51 0 0 1 .06.35c0-.2 0-.22 0 0a2 2 0 0 0 0 .23v.61s-.06.31 0-.07c-.07.31.2-.29 0 0a.84.84 0 0 1 .52-.4c-.28.08.4 0 .09 0s.37.1.08 0c.22.1.28.13.17.07l-.1-.06.17.12c-.11-.12-.1-.09 0 .09a2.2 2.2 0 0 1 -.15-.26l.08.19c0-.07-.05-.13-.07-.19s0-.19-.07-.29a1.55 1.55 0 0 1 0-.21c-.09-.39 0 .32 0-.08s0-.55 0-.84v-.36c0-.38 0 .23 0 0s.08-.39.13-.58-.19.28 0 0 .25-.3 0 0c.2-.22-.31.16-.06 0a1 1 0 0 1 -.73.1l-.43-.25c-.13-.2-.16-.22-.07-.09.16.3-.11-.36 0 0a6.17 6.17 0 0 1 .19.65 1.42 1.42 0 0 1 0 .22v.11c0 .17 0 .15 0-.06a2.31 2.31 0 0 1 0 .79v.34c0 .29 0 0 0-.07a1.89 1.89 0 0 1 -.13.57v.09c-.06.15 0 .11 0-.11a1.15 1.15 0 0 0 -.12.25s-.15.2-.14.23.24-.28 0 0-.21.09 0 0a1.48 1.48 0 0 0 -.21.13l.21-.08h-.15.24-.17s.39.07.14 0 .31.17 0 0 .23.25 0 0 .08.19 0 0-.09-.16-.14-.23c-.13-.22 0 .07 0 .11a.89.89 0 0 0 -.09-.26l-.06-.26v-.11c0-.16 0-.13 0 .09a.8.8 0 0 1 0-.31 4.42 4.42 0 0 1 0-.63v-.11c0-.17 0-.14 0 .09a1.13 1.13 0 0 1 .06-.31 6.13 6.13 0 0 1 .18-.61 1.46 1.46 0 0 0 .07-.19l-.07.16.09-.19.15-.28c0-.06.16-.32.23-.35l-.11.15.13-.15s.14-.14.15-.14l-.15.11.17-.11c.25-.19-.31.1 0 0h.08a.7.7 0 0 1 -.43 0c.31.07-.29-.17 0 0-.29-.18-.16-.1-.06 0l-.09-.11.11.16c0 .09.11.18.15.27a1.74 1.74 0 0 1 .1.19c.07.15.06.12 0-.07a2.27 2.27 0 0 1 .19.59c0 .1.05.2.07.3a1.55 1.55 0 0 1 0 .21c0-.22 0-.25 0-.09s0 .49 0 .73v.21s0 .14 0-.08a1.77 1.77 0 0 1 0 .2c0 .1 0 .2-.07.3a1.06 1.06 0 0 1 -.06.19c-.05.15 0 .12 0-.09 0 0-.13.24-.14.26v.08c-.1.13-.08.11 0-.07 0 0-.18.19-.19.21l.08-.07-.15.09.2-.09h.14c-.28 0 .32.1.06 0l.19.08c-.13-.07-.09 0 .11.1l-.12-.11c.15.2.18.24.1.11v-.07c-.07-.14 0-.1 0 .12 0-.08-.08-.24-.09-.33a1 1 0 0 0 0-.17c0 .25 0 .3 0 .14a1 1 0 0 1 0-.17 10.43 10.43 0 0 1 0-1.58c0-.41-.06.31 0-.09l.09-.48c.06-.28.14-.55.2-.83l-1.41 1.08c-.52 0-.77-.33-.78-.69a1.35 1.35 0 0 0 2.65.35 2.15 2.15 0 0 0 -1.48-2.55 1.51 1.51 0 0 0 -1.81 1 10.08 10.08 0 0 0 -.43 2.24 8.52 8.52 0 0 0 0 1.82 3.71 3.71 0 0 0 .8 2.11 2.43 2.43 0 0 0 2 .83 3.53 3.53 0 0 0 2.93-3 6.67 6.67 0 0 0 -.51-4.15 3.93 3.93 0 0 0 -1.32-1.67 2.57 2.57 0 0 0 -2.6 0 5.21 5.21 0 0 0 -2.25 3.4 6 6 0 0 0 .38 4 2.9 2.9 0 0 0 3.89 1.38 4.24 4.24 0 0 0 2-3.43 7.34 7.34 0 0 0 -.09-2.09 4.56 4.56 0 0 0 -.79-2 2.08 2.08 0 0 0 -2.74-.49 3.1 3.1 0 0 0 -1.27 1.85 7 7 0 0 0 .33 4.5 2.74 2.74 0 0 0 1.73 1.48 2.4 2.4 0 0 0 2.39-.61 3 3 0 0 0 .65-2.3 8.19 8.19 0 0 0 -.41-2.14c-.48-1.32-1.58-2.74-3.15-2.62a2.57 2.57 0 0 0 -2 1.15 3.37 3.37 0 0 0 -.53 1.69c-.2 2.37 2.27 5.66 4.85 4.18a2.9 2.9 0 0 0 1.14-3.6 3.69 3.69 0 0 0 -3.09-2.16 4 4 0 0 0 -1.75.19.74.74 0 0 0 -.53.81.72.72 0 0 0 .72.64z"/><path d="m550.66 330.7a73 73 0 0 0 -12.63.39.85.85 0 0 0 -.82.82.83.83 0 0 0 .82.82 95.24 95.24 0 0 1 12.63-.73.65.65 0 0 0 0-1.3z"/><path d="m557.35 300.2a115.57 115.57 0 0 0 -26.11-2.32c.35-2.1 2.81-3.05 4.91-3.37a32.23 32.23 0 0 1 21.79 4.43.64.64 0 0 1 -.79.31"/><path d="m557.94 298.07a130.39 130.39 0 0 0 -26.7-4.49l4.14 5.44c.15-.53 0-.09-.11.17.21-.48 0-.07-.14.16.55-.79-.31.51 0 0 0-.05.77-.43.2-.14s.12 0 .25-.07l.64-.18.81-.16c-.43.1-.52.06 0 0a35.38 35.38 0 0 1 7.13-.13l.83.09c-.46-.05-.28 0 .08 0l1.65.3c1.17.25 2.3.62 3.45.92 2.4.63 4.8 1.48 6.91 2.18l-2.42-4.16-.1.26.85-1.45-.21.19 1.41-.82-.28.07c-2.49.6-3.11 4.43-.74 5.63a4 4 0 0 0 4.07 0 3.44 3.44 0 0 0 .69-5.34c-4.62-4.58-11.18-6.38-17.49-6.78a27.93 27.93 0 0 0 -8.84.69c-3 .81-6.4 2.94-6.92 6.3a4.49 4.49 0 0 0 .77 3.74 4 4 0 0 0 3.37 1.69 109.13 109.13 0 0 1 26.11.25c2.54.29 2.9-3.67.59-4.35z"/><path d="m487.24 360.13c-2.35 2 .05 4.28 2 5.36a24.85 24.85 0 0 0 20.59 1c2.41-1.07 4.69-3.28 3.4-6.09-.56-1.2-2.22-.29-2 .85.37 2-1.72 2.82-3.35 3.33a26.34 26.34 0 0 1 -7.44 1 25.39 25.39 0 0 1 -8.81-1.42c-1-.37-4.66-1.52-3.37-3.06a.7.7 0 0 0 -1-1z"/><path d="m615.86 552.7.56.56a.54.54 0 0 0 .26.16.48.48 0 0 0 .31.07.49.49 0 0 0 .31-.07.54.54 0 0 0 .26-.16l.13-.17a.8.8 0 0 0 .11-.4v-.22a.78.78 0 0 0 -.21-.35l-.56-.56a.88.88 0 0 0 -.57-.24.55.55 0 0 0 -.31.07.56.56 0 0 0 -.26.17l-.13.16a.81.81 0 0 0 -.11.41v.21a.82.82 0 0 0 .21.36z" fill="#fff"/><path d="m470.62 381.9c2.08 6.65 9.88 9.27 15.83 11.24a87.86 87.86 0 0 0 24.55 4.43c3.34.12 7.3-.35 9-3.61a1 1 0 0 0 -1.73-1c-2.24 3.06-7.84 2.13-11 1.88a94.59 94.59 0 0 1 -13.9-2.19 75.61 75.61 0 0 1 -12.84-4c-3.54-1.54-6.9-3.65-8.61-7.25-.35-.71-1.52-.21-1.28.54z"/><path d="m479.6 403.79a22.18 22.18 0 0 0 16.8 6.21c1-.07 1-1.54 0-1.49a21.47 21.47 0 0 1 -15.82-5.74c-.65-.61-1.61.36-1 1z"/><path d="m469.67 382a5.06 5.06 0 0 0 2.2-.78 5.29 5.29 0 0 0 1.63-1.7.74.74 0 0 0 -1.28-.75 3.38 3.38 0 0 1 -.24.41l-.09.12c-.05.08 0 0 0 0a1.3 1.3 0 0 0 -.15.18l-.34.34-.18.16h-.05l-.09.07c-.13.09-.27.17-.41.25l-.21.11h-.11s-.14.07-.05 0 0 0-.05 0h-.11l-.23.07a3.88 3.88 0 0 1 -.49.11.65.65 0 0 0 -.47.72.64.64 0 0 0 .65.57z"/><path d="m398.19 277.15a109.65 109.65 0 0 0 44.74-72.69c23 26.08 56.18 41.55 90.17 48.92 5.5 1.2 11.59 2.12 16.48-.67s6.78-10.86 2-13.91c9.58 12.41 23.09 21.21 37.09 28.25 6.11 3.06 12.93 6.44 15.31 12.85 1.74 4.7-.21 17.23 4.68 18.33 1.91-8.68 8.69-14.19 7.7-31.78 5.65 1.27 11.44-3 13.61-8.36s1.47-11.46.11-17.09a77 77 0 0 0 -27-42c4.11 3.83 8.54 7.81 14.06 8.86s12.25-2.28 12.67-7.88a13.36 13.36 0 0 0 -1.65-6.49c-6.31-13.4-18-23.73-31-30.74s-27.48-11-41.9-14.35c-19.93-4.63-40.45-8.16-60.8-6s-40.68 10.69-53.59 26.6c-7.45-3.58-16.36-.59-23.64 3.34a99.4 99.4 0 0 0 -46 53.68c-2 5.61-3.48 11.68-2.1 17.47s6.41 11.07 12.36 10.92c-1.21 14.9 2.72 38 11.45 50.09 1.28-1.75 2.87-11.3 4.15-13.05"/><path d="m398.58 277.83a110.06 110.06 0 0 0 40.8-54.18 106.65 106.65 0 0 0 4.63-18.9l-1.87.49c12.86 14.51 28.86 25.87 46.28 34.24a191.54 191.54 0 0 0 27.15 10.52q7.11 2.17 14.34 3.84c4.69 1.08 9.61 2.29 14.45 1.69 4.68-.57 8.7-2.94 10.43-7.46 1.41-3.66.82-8-2.57-10.29-1.19-.81-2.16.87-1.42 1.83 8.47 10.89 19.88 19.05 31.91 25.62 5.43 3 11.64 5.27 16.25 9.49a13.32 13.32 0 0 1 4.19 6.48 38 38 0 0 1 .64 6.48c.21 3.61.08 10.53 4.6 11.7a1.23 1.23 0 0 0 1.49-.85c1-4.46 3.36-8.44 5-12.68a46.78 46.78 0 0 0 2.75-19.42l-1.53 1.17c5.26 1.07 10.28-1.71 13.32-5.92 3.6-5 3.64-11.59 2.65-17.42a74.85 74.85 0 0 0 -14.31-32.1 77.78 77.78 0 0 0 -13.76-14.04c-1.25-1-3 .66-1.8 1.81 5.38 5 12 10.8 20 9.12a12 12 0 0 0 7.71-5.11c2.1-3.4 1.18-7.26-.37-10.68-6.64-14.63-19.69-25.62-33.76-32.8a141.45 141.45 0 0 0 -26-9.8c-9.16-2.58-18.47-4.71-27.81-6.52-18.47-3.57-37.64-5.42-56.25-1.8-15.51 3-30.68 9.87-41.89 21.21q-2.09 2.12-4 4.43l1.7-.22c-9-4.16-18.83-.23-26.83 4.31a99.71 99.71 0 0 0 -20.93 16 101.87 101.87 0 0 0 -16 20.65 99.41 99.41 0 0 0 -5.77 11.64 59.48 59.48 0 0 0 -4.37 13.93c-.78 5.14-.37 10.59 2.64 15 2.56 3.77 6.59 6.51 11.26 6.48l-1.37-1.38a90.92 90.92 0 0 0 .92 20.25 86.94 86.94 0 0 0 5.51 20.91 48.08 48.08 0 0 0 5.19 9.63 1.41 1.41 0 0 0 2.4 0c1.23-1.83 1.59-4.46 2.12-6.56.34-1.35.67-2.7 1.05-4a8.59 8.59 0 0 1 .94-2.47c1-1.44-1.36-2.79-2.33-1.36-1.23 1.83-1.61 4.44-2.15 6.54-.34 1.35-.68 2.7-1.08 4a8.6 8.6 0 0 1 -.95 2.45h2.4c-3.76-5.31-6.11-11.54-7.85-17.77a99.24 99.24 0 0 1 -3.48-20.89 78.42 78.42 0 0 1 .06-10.73 1.39 1.39 0 0 0 -1.38-1.37 11 11 0 0 1 -9.1-5.43c-2.45-3.79-2.8-8.42-2.11-12.79a57.19 57.19 0 0 1 3.89-12.8 94.16 94.16 0 0 1 5.35-10.91 98.16 98.16 0 0 1 33-34.44c7.75-4.86 18.42-10.76 27.63-6.48a1.46 1.46 0 0 0 1.71-.22c9.57-11.69 23.11-19.3 37.55-23.27 16.77-4.62 34.47-4.19 51.55-1.64 9.15 1.37 18.21 3.31 27.2 5.47a204.77 204.77 0 0 1 24.75 7.31c14.67 5.52 28.84 14 38.34 26.71a56.65 56.65 0 0 1 5.71 9.47c1.56 3.27 2.52 7-.29 9.85a10.63 10.63 0 0 1 -8.19 2.91c-3.79-.25-7.3-2.51-10.17-4.83-1.49-1.2-2.9-2.5-4.31-3.8l-1.8 1.81a76.21 76.21 0 0 1 20.28 24.4 74.85 74.85 0 0 1 5.92 15c1.51 5.52 2.65 11.57.88 17.17-1.62 5.17-6.82 10-12.57 8.81a1.21 1.21 0 0 0 -1.52 1.16 45 45 0 0 1 -2.78 19c-1.62 4.14-3.9 8-4.89 12.42l1.49-.85c-1.58-.41-2-2.5-2.26-3.87a50 50 0 0 1 -.62-6.7 31.57 31.57 0 0 0 -.71-6.13 15 15 0 0 0 -4-6.55c-4.21-4.31-10-6.64-15.26-9.39a136 136 0 0 1 -17.46-10.76 82.73 82.73 0 0 1 -16.29-15.65l-1.45 1.81c2.8 1.9 2.53 5.84 1.11 8.52-2 3.83-6.27 5.06-10.36 5-4.64 0-9.26-1.26-13.74-2.35s-8.76-2.27-13.08-3.61a172.67 172.67 0 0 1 -48.64-23.53 133.32 133.32 0 0 1 -22.61-20.22 1.11 1.11 0 0 0 -1.86.49 110.26 110.26 0 0 1 -29.54 59.69 105.13 105.13 0 0 1 -14.53 12.62c-.82.58 0 1.94.79 1.36z"/><path d="m101.63 795.79h13.82v13.82h-13.82z" fill="#18c4ff"/><path d="m115.45 808.65h-13.82l1 1v-13.86l-1 1h13.82l-1-1v13.81a1 1 0 0 0 1.92 0v-13.81a1 1 0 0 0 -1-1h-13.74a1 1 0 0 0 -1 1v13.81a1 1 0 0 0 1 1h13.82a1 1 0 0 0 0-1.95z"/><path d="m136.24 795.79h13.82v13.82h-13.82z" fill="#18c4ff"/><path d="m150.06 808.65h-13.82l1 1v-13.86l-1 1h13.82l-1-1v13.81a1 1 0 0 0 1.92 0v-13.81a1 1 0 0 0 -1-1h-13.74a1 1 0 0 0 -1 1v13.81a1 1 0 0 0 1 1h13.82a1 1 0 0 0 0-1.95z"/><path d="m90.69 801.05h70.31v32.86h-70.31z" fill="#18c4ff"/><path d="m161 833h-70.31l1 1v-32.95l-1 1h70.31l-1-1v32.87a1 1 0 0 0 1.92 0v-32.87a1 1 0 0 0 -1-1h-70.23a1 1 0 0 0 -1 1v32.87a1 1 0 0 0 1 1h70.31a1 1 0 0 0 0-1.92z"/><path d="m101.63 762.92h13.82v13.82h-13.82z" fill="#18c4ff"/><path d="m115.45 775.78h-13.82l1 1v-13.86l-1 1h13.82l-1-1v13.82a1 1 0 0 0 1.92 0v-13.82a1 1 0 0 0 -1-1h-13.74a1 1 0 0 0 -1 1v13.82a1 1 0 0 0 1 1h13.82a1 1 0 0 0 0-1.96z"/><path d="m136.24 762.92h13.82v13.82h-13.82z" fill="#18c4ff"/><path d="m150.06 775.78h-13.82l1 1v-13.86l-1 1h13.82l-1-1v13.82a1 1 0 0 0 1.92 0v-13.82a1 1 0 0 0 -1-1h-13.74a1 1 0 0 0 -1 1v13.82a1 1 0 0 0 1 1h13.82a1 1 0 0 0 0-1.96z"/><path d="m90.69 768.19h70.31v32.86h-70.31z" fill="#fff"/><path d="m161 800.09h-70.31l1 1v-32.9l-1 1h70.31l-1-1v32.86a1 1 0 0 0 1.92 0v-32.86a1 1 0 0 0 -1-1h-70.23a1 1 0 0 0 -1 1v32.86a1 1 0 0 0 1 1h70.31a1 1 0 0 0 0-1.96z"/><path d="m101.63 730.06h13.82v13.82h-13.82z" fill="#18c4ff"/><path d="m115.45 742.92h-13.82l1 1v-13.86l-1 1h13.82l-1-1v13.82a1 1 0 0 0 1.92 0v-13.82a1 1 0 0 0 -1-1h-13.74a1 1 0 0 0 -1 1v13.82a1 1 0 0 0 1 1h13.82a1 1 0 0 0 0-1.96z"/><path d="m136.24 730.06h13.82v13.82h-13.82z" fill="#18c4ff"/><path d="m150.06 742.92h-13.82l1 1v-13.86l-1 1h13.82l-1-1v13.82a1 1 0 0 0 1.92 0v-13.82a1 1 0 0 0 -1-1h-13.74a1 1 0 0 0 -1 1v13.82a1 1 0 0 0 1 1h13.82a1 1 0 0 0 0-1.96z"/><path d="m90.69 735.33h70.31v32.86h-70.31z" fill="#18c4ff"/><path d="m161 767.23h-70.31l1 1v-32.9l-1 .95h70.31l-1-.95v32.86a1 1 0 0 0 1.92 0v-32.86a1 1 0 0 0 -1-1h-70.23a1 1 0 0 0 -1 1v32.86a1 1 0 0 0 1 1h70.31a1 1 0 0 0 0-1.96z"/><path d="m226.35 795.79h13.82v13.82h-13.82z" fill="#18c4ff"/><path d="m240.17 808.65h-13.82l1 1v-13.86l-1 1h13.82l-1-1v13.81a1 1 0 0 0 1.92 0v-13.81a1 1 0 0 0 -1-1h-13.74a1 1 0 0 0 -1 1v13.81a1 1 0 0 0 1 1h13.82a1 1 0 0 0 0-1.95z"/><path d="m260.96 795.79h13.82v13.82h-13.82z" fill="#18c4ff"/><path d="m274.78 808.65h-13.78l1 1v-13.86l-1 1h13.82l-1-1v13.81a1 1 0 0 0 1.91 0v-13.81a1 1 0 0 0 -1-1h-13.73a1 1 0 0 0 -1 1v13.81a1 1 0 0 0 1 1h13.82a1 1 0 0 0 -.04-1.95z"/><path d="m215.41 801.05h70.31v32.86h-70.31z" fill="#18c4ff"/><path d="m285.72 833h-70.31l1 1v-32.95l-1 1h70.31l-1-1v32.87a1 1 0 0 0 1.91 0v-32.87a1 1 0 0 0 -.95-1h-70.27a1 1 0 0 0 -1 1v32.87a1 1 0 0 0 1 1h70.31a1 1 0 0 0 0-1.92z"/><path d="m226.35 762.92h13.82v13.82h-13.82z" fill="#18c4ff"/><path d="m240.17 775.78h-13.82l1 1v-13.86l-1 1h13.82l-1-1v13.82a1 1 0 0 0 1.92 0v-13.82a1 1 0 0 0 -1-1h-13.74a1 1 0 0 0 -1 1v13.82a1 1 0 0 0 1 1h13.82a1 1 0 0 0 0-1.96z"/><path d="m260.96 762.92h13.82v13.82h-13.82z" fill="#18c4ff"/><path d="m274.78 775.78h-13.78l1 1v-13.86l-1 1h13.82l-1-1v13.82a1 1 0 0 0 1.91 0v-13.82a1 1 0 0 0 -1-1h-13.73a1 1 0 0 0 -1 1v13.82a1 1 0 0 0 1 1h13.82a1 1 0 0 0 -.04-1.96z"/><path d="m215.41 768.19h70.31v32.86h-70.31z" fill="#18c4ff"/><path d="m285.72 800.09h-70.31l1 1v-32.9l-1 1h70.31l-1-1v32.86a1 1 0 0 0 1.91 0v-32.86a1 1 0 0 0 -.95-1h-70.27a1 1 0 0 0 -1 1v32.86a1 1 0 0 0 1 1h70.31a1 1 0 0 0 0-1.96z"/><path d="m226.35 730.06h13.82v13.82h-13.82z" fill="#18c4ff"/><path d="m240.17 742.92h-13.82l1 1v-13.86l-1 1h13.82l-1-1v13.82a1 1 0 0 0 1.92 0v-13.82a1 1 0 0 0 -1-1h-13.74a1 1 0 0 0 -1 1v13.82a1 1 0 0 0 1 1h13.82a1 1 0 0 0 0-1.96z"/><path d="m260.96 730.06h13.82v13.82h-13.82z" fill="#18c4ff"/><path d="m274.78 742.92h-13.78l1 1v-13.86l-1 1h13.82l-1-1v13.82a1 1 0 0 0 1.91 0v-13.82a1 1 0 0 0 -1-1h-13.73a1 1 0 0 0 -1 1v13.82a1 1 0 0 0 1 1h13.82a1 1 0 0 0 -.04-1.96z"/><path d="m215.41 735.33h70.31v32.86h-70.31z" fill="#18c4ff"/><path d="m285.72 767.23h-70.31l1 1v-32.9l-1 .95h70.31l-1-.95v32.86a1 1 0 0 0 1.91 0v-32.86a1 1 0 0 0 -.95-1h-70.27a1 1 0 0 0 -1 1v32.86a1 1 0 0 0 1 1h70.31a1 1 0 0 0 0-1.96z"/><path d="m226.35 697.2h13.82v13.82h-13.82z" fill="#18c4ff"/><path d="m240.17 710.06h-13.82l1 1v-13.86l-1 .95h13.82l-1-.95v13.8a1 1 0 0 0 1.92 0v-13.8a1 1 0 0 0 -1-1h-13.74a1 1 0 0 0 -1 1v13.8a1 1 0 0 0 1 1h13.82a1 1 0 0 0 0-1.94z"/><path d="m260.96 697.2h13.82v13.82h-13.82z" fill="#18c4ff"/><path d="m274.78 710.06h-13.78l1 1v-13.86l-1 .95h13.82l-1-.95v13.8a1 1 0 0 0 1.91 0v-13.8a1 1 0 0 0 -1-1h-13.73a1 1 0 0 0 -1 1v13.8a1 1 0 0 0 1 1h13.82a1 1 0 0 0 -.04-1.94z"/><path d="m215.41 702.46h70.31v32.86h-70.31z" fill="#fff"/><path d="m285.72 734.37h-70.31l1 1v-32.91l-1 1h70.31l-1-1v32.87a1 1 0 0 0 1.91 0v-32.87a1 1 0 0 0 -.95-1h-70.27a1 1 0 0 0 -1 1v32.87a1 1 0 0 0 1 .95h70.31a1 1 0 0 0 0-1.91z"/><path d="m226.35 664.33h13.82v13.82h-13.82z" fill="#18c4ff"/><path d="m240.17 677.19h-13.82l1 1v-13.86l-1 1h13.82l-1-1v13.82a1 1 0 0 0 1.92 0v-13.82a1 1 0 0 0 -1-1h-13.74a1 1 0 0 0 -1 1v13.82a1 1 0 0 0 1 1h13.82a1 1 0 0 0 0-1.96z"/><path d="m260.96 664.33h13.82v13.82h-13.82z" fill="#18c4ff"/><path d="m274.78 677.19h-13.78l1 1v-13.86l-1 1h13.82l-1-1v13.82a1 1 0 0 0 1.91 0v-13.82a1 1 0 0 0 -1-1h-13.73a1 1 0 0 0 -1 1v13.82a1 1 0 0 0 1 1h13.82a1 1 0 0 0 -.04-1.96z"/><path d="m215.41 669.6h70.31v32.86h-70.31z" fill="#fff"/><path d="m285.72 701.5h-70.31l1 1v-32.9l-1 1h70.31l-1-1v32.86a1 1 0 0 0 1.91 0v-32.86a1 1 0 0 0 -.95-1h-70.27a1 1 0 0 0 -1 1v32.86a1 1 0 0 0 1 1h70.31a1 1 0 0 0 0-1.96z"/><path d="m226.35 631.47h13.82v13.82h-13.82z" fill="#18c4ff"/><path d="m240.17 644.33h-13.82l1 1v-13.86l-1 1h13.82l-1-1v13.82a1 1 0 0 0 1.92 0v-13.82a1 1 0 0 0 -1-1h-13.74a1 1 0 0 0 -1 1v13.82a1 1 0 0 0 1 1h13.82a1 1 0 0 0 0-1.96z"/><path d="m260.96 631.47h13.82v13.82h-13.82z" fill="#18c4ff"/><path d="m274.78 644.33h-13.78l1 1v-13.86l-1 1h13.82l-1-1v13.82a1 1 0 0 0 1.91 0v-13.82a1 1 0 0 0 -1-1h-13.73a1 1 0 0 0 -1 1v13.82a1 1 0 0 0 1 1h13.82a1 1 0 0 0 -.04-1.96z"/><path d="m215.41 636.74h70.31v32.86h-70.31z" fill="#18c4ff"/><path d="m285.72 668.64h-70.31l1 1v-32.9l-1 1h70.31l-1-1v32.86a1 1 0 0 0 1.91 0v-32.86a1 1 0 0 0 -.95-1h-70.27a1 1 0 0 0 -1 1v32.86a1 1 0 0 0 1 1h70.31a1 1 0 0 0 0-1.96z"/><path d="m351.07 795.79h13.82v13.82h-13.82z" fill="#18c4ff"/><path d="m364.89 808.65h-13.82l1 1v-13.86l-1 1h13.82l-1-1v13.81a1 1 0 0 0 1.91 0v-13.81a1 1 0 0 0 -.95-1h-13.78a1 1 0 0 0 -1 1v13.81a1 1 0 0 0 1 1h13.82a1 1 0 0 0 0-1.95z"/><path d="m385.68 795.79h13.82v13.82h-13.82z" fill="#18c4ff"/><path d="m399.5 808.65h-13.82l1 1v-13.86l-1 1h13.82l-1-1v13.81a1 1 0 0 0 1.91 0v-13.81a1 1 0 0 0 -.95-1h-13.78a1 1 0 0 0 -1 1v13.81a1 1 0 0 0 1 1h13.82a1 1 0 0 0 0-1.95z"/><path d="m340.13 801.05h70.31v32.86h-70.31z" fill="#fff"/><path d="m410.44 833h-70.31l1 1v-32.95l-1 1h70.31l-1-1v32.87a1 1 0 0 0 1.91 0v-32.87a1 1 0 0 0 -.95-1h-70.27a1 1 0 0 0 -1 1v32.87a1 1 0 0 0 1 1h70.31a1 1 0 0 0 0-1.92z"/><path d="m351.07 762.92h13.82v13.82h-13.82z" fill="#18c4ff"/><path d="m364.89 775.78h-13.82l1 1v-13.86l-1 1h13.82l-1-1v13.82a1 1 0 0 0 1.91 0v-13.82a1 1 0 0 0 -.95-1h-13.78a1 1 0 0 0 -1 1v13.82a1 1 0 0 0 1 1h13.82a1 1 0 0 0 0-1.96z"/><path d="m385.68 762.92h13.82v13.82h-13.82z" fill="#18c4ff"/><path d="m399.5 775.78h-13.82l1 1v-13.86l-1 1h13.82l-1-1v13.82a1 1 0 0 0 1.91 0v-13.82a1 1 0 0 0 -.95-1h-13.78a1 1 0 0 0 -1 1v13.82a1 1 0 0 0 1 1h13.82a1 1 0 0 0 0-1.96z"/><path d="m340.13 768.19h70.31v32.86h-70.31z" fill="#fff"/><path d="m410.44 800.09h-70.31l1 1v-32.9l-1 1h70.31l-1-1v32.86a1 1 0 0 0 1.91 0v-32.86a1 1 0 0 0 -.95-1h-70.27a1 1 0 0 0 -1 1v32.86a1 1 0 0 0 1 1h70.31a1 1 0 0 0 0-1.96z"/><path d="m351.07 730.06h13.82v13.82h-13.82z" fill="#18c4ff"/><path d="m364.89 742.92h-13.82l1 1v-13.86l-1 1h13.82l-1-1v13.82a1 1 0 0 0 1.91 0v-13.82a1 1 0 0 0 -.95-1h-13.78a1 1 0 0 0 -1 1v13.82a1 1 0 0 0 1 1h13.82a1 1 0 0 0 0-1.96z"/><path d="m385.68 730.06h13.82v13.82h-13.82z" fill="#18c4ff"/><path d="m399.5 742.92h-13.82l1 1v-13.86l-1 1h13.82l-1-1v13.82a1 1 0 0 0 1.91 0v-13.82a1 1 0 0 0 -.95-1h-13.78a1 1 0 0 0 -1 1v13.82a1 1 0 0 0 1 1h13.82a1 1 0 0 0 0-1.96z"/><path d="m340.13 735.33h70.31v32.86h-70.31z" fill="#fff"/><path d="m410.44 767.23h-70.31l1 1v-32.9l-1 .95h70.31l-1-.95v32.86a1 1 0 0 0 1.91 0v-32.86a1 1 0 0 0 -.95-1h-70.27a1 1 0 0 0 -1 1v32.86a1 1 0 0 0 1 1h70.31a1 1 0 0 0 0-1.96z"/><path d="m351.07 697.2h13.82v13.82h-13.82z" fill="#18c4ff"/><path d="m364.89 710.06h-13.82l1 1v-13.86l-1 .95h13.82l-1-.95v13.8a1 1 0 0 0 1.91 0v-13.8a1 1 0 0 0 -.95-1h-13.78a1 1 0 0 0 -1 1v13.8a1 1 0 0 0 1 1h13.82a1 1 0 0 0 0-1.94z"/><path d="m385.68 697.2h13.82v13.82h-13.82z" fill="#18c4ff"/><path d="m399.5 710.06h-13.82l1 1v-13.86l-1 .95h13.82l-1-.95v13.8a1 1 0 0 0 1.91 0v-13.8a1 1 0 0 0 -.95-1h-13.78a1 1 0 0 0 -1 1v13.8a1 1 0 0 0 1 1h13.82a1 1 0 0 0 0-1.94z"/><path d="m340.13 702.46h70.31v32.86h-70.31z" fill="#18c4ff"/><path d="m410.44 734.37h-70.31l1 1v-32.91l-1 1h70.31l-1-1v32.87a1 1 0 0 0 1.91 0v-32.87a1 1 0 0 0 -.95-1h-70.27a1 1 0 0 0 -1 1v32.87a1 1 0 0 0 1 .95h70.31a1 1 0 0 0 0-1.91z"/><path d="m351.07 664.33h13.82v13.82h-13.82z" fill="#18c4ff"/><path d="m364.89 677.19h-13.82l1 1v-13.86l-1 1h13.82l-1-1v13.82a1 1 0 0 0 1.91 0v-13.82a1 1 0 0 0 -.95-1h-13.78a1 1 0 0 0 -1 1v13.82a1 1 0 0 0 1 1h13.82a1 1 0 0 0 0-1.96z"/><path d="m385.68 664.33h13.82v13.82h-13.82z" fill="#18c4ff"/><path d="m399.5 677.19h-13.82l1 1v-13.86l-1 1h13.82l-1-1v13.82a1 1 0 0 0 1.91 0v-13.82a1 1 0 0 0 -.95-1h-13.78a1 1 0 0 0 -1 1v13.82a1 1 0 0 0 1 1h13.82a1 1 0 0 0 0-1.96z"/><path d="m340.13 669.6h70.31v32.86h-70.31z" fill="#18c4ff"/><path d="m410.44 701.5h-70.31l1 1v-32.9l-1 1h70.31l-1-1v32.86a1 1 0 0 0 1.91 0v-32.86a1 1 0 0 0 -.95-1h-70.27a1 1 0 0 0 -1 1v32.86a1 1 0 0 0 1 1h70.31a1 1 0 0 0 0-1.96z"/><path d="m351.07 631.47h13.82v13.82h-13.82z" fill="#18c4ff"/><path d="m364.89 644.33h-13.82l1 1v-13.86l-1 1h13.82l-1-1v13.82a1 1 0 0 0 1.91 0v-13.82a1 1 0 0 0 -.95-1h-13.78a1 1 0 0 0 -1 1v13.82a1 1 0 0 0 1 1h13.82a1 1 0 0 0 0-1.96z"/><path d="m385.68 631.47h13.82v13.82h-13.82z" fill="#18c4ff"/><path d="m399.5 644.33h-13.82l1 1v-13.86l-1 1h13.82l-1-1v13.82a1 1 0 0 0 1.91 0v-13.82a1 1 0 0 0 -.95-1h-13.78a1 1 0 0 0 -1 1v13.82a1 1 0 0 0 1 1h13.82a1 1 0 0 0 0-1.96z"/><path d="m340.13 636.74h70.31v32.86h-70.31z" fill="#18c4ff"/><path d="m410.44 668.64h-70.31l1 1v-32.9l-1 1h70.31l-1-1v32.86a1 1 0 0 0 1.91 0v-32.86a1 1 0 0 0 -.95-1h-70.27a1 1 0 0 0 -1 1v32.86a1 1 0 0 0 1 1h70.31a1 1 0 0 0 0-1.96z"/><path d="m351.07 598.61h13.82v13.82h-13.82z" fill="#18c4ff"/><path d="m364.89 611.47h-13.82l1 .95v-13.81l-1 .95h13.82l-1-.95v13.81a1 1 0 0 0 1.91 0v-13.81a1 1 0 0 0 -.95-1h-13.78a1 1 0 0 0 -1 1v13.81a1 1 0 0 0 1 1h13.82a1 1 0 0 0 0-1.95z"/><path d="m385.68 598.61h13.82v13.82h-13.82z" fill="#18c4ff"/><path d="m399.5 611.47h-13.82l1 .95v-13.81l-1 .95h13.82l-1-.95v13.81a1 1 0 0 0 1.91 0v-13.81a1 1 0 0 0 -.95-1h-13.78a1 1 0 0 0 -1 1v13.81a1 1 0 0 0 1 1h13.82a1 1 0 0 0 0-1.95z"/><path d="m340.13 603.87h70.31v32.86h-70.31z" fill="#18c4ff"/><path d="m410.44 635.78h-70.31l1 1v-32.91l-1 1h70.31l-1-1v32.87a1 1 0 0 0 1.91 0v-32.87a1 1 0 0 0 -.95-1h-70.27a1 1 0 0 0 -1 1v32.87a1 1 0 0 0 1 1h70.31a1 1 0 0 0 0-1.96z"/><path d="m351.07 565.74h13.82v13.82h-13.82z" fill="#18c4ff"/><path d="m364.89 578.6h-13.82l1 1v-13.86l-1 1h13.82l-1-1v13.82a1 1 0 0 0 1.91 0v-13.82a1 1 0 0 0 -.95-1h-13.78a1 1 0 0 0 -1 1v13.82a1 1 0 0 0 1 1h13.82a1 1 0 0 0 0-1.96z"/><path d="m385.68 565.74h13.82v13.82h-13.82z" fill="#18c4ff"/><path d="m399.5 578.6h-13.82l1 1v-13.86l-1 1h13.82l-1-1v13.82a1 1 0 0 0 1.91 0v-13.82a1 1 0 0 0 -.95-1h-13.78a1 1 0 0 0 -1 1v13.82a1 1 0 0 0 1 1h13.82a1 1 0 0 0 0-1.96z"/><path d="m340.13 571.01h70.31v32.86h-70.31z" fill="#18c4ff"/><path d="m410.44 602.92h-70.31l1 1v-32.92l-1 1h70.31l-1-1v32.86a1 1 0 0 0 1.91 0v-32.86a1 1 0 0 0 -.95-1h-70.27a1 1 0 0 0 -1 1v32.86a1 1 0 0 0 1 1h70.31a1 1 0 0 0 0-1.94z"/><path d="m351.07 532.88h13.82v13.82h-13.82z" fill="#18c4ff"/><path d="m364.89 545.74h-13.82l1 1v-13.86l-1 1h13.82l-1-1v13.82a1 1 0 0 0 1.91 0v-13.82a1 1 0 0 0 -.95-1h-13.78a1 1 0 0 0 -1 1v13.82a1 1 0 0 0 1 .95h13.82a1 1 0 0 0 0-1.91z"/><path d="m385.68 532.88h13.82v13.82h-13.82z" fill="#18c4ff"/><path d="m399.5 545.74h-13.82l1 1v-13.86l-1 1h13.82l-1-1v13.82a1 1 0 0 0 1.91 0v-13.82a1 1 0 0 0 -.95-1h-13.78a1 1 0 0 0 -1 1v13.82a1 1 0 0 0 1 .95h13.82a1 1 0 0 0 0-1.91z"/><path d="m340.13 538.15h70.31v32.86h-70.31z" fill="#18c4ff"/><path d="m410.44 570.05h-70.31l1 1v-32.9l-1 1h70.31l-1-1v32.85a1 1 0 0 0 1.91 0v-32.85a1 1 0 0 0 -.95-1h-70.27a1 1 0 0 0 -1 1v32.85a1 1 0 0 0 1 1h70.31a1 1 0 0 0 0-1.95z"/><path d="m351.07 500.02h13.82v13.82h-13.82z" fill="#18c4ff"/><path d="m364.89 512.88h-13.82l1 1v-13.88l-1 1h13.82l-1-1v13.81a1 1 0 0 0 1.91 0v-13.81a1 1 0 0 0 -.95-1h-13.78a1 1 0 0 0 -1 1v13.81a1 1 0 0 0 1 1h13.82a1 1 0 0 0 0-1.93z"/><path d="m385.68 500.02h13.82v13.82h-13.82z" fill="#18c4ff"/><path d="m399.5 512.88h-13.82l1 1v-13.88l-1 1h13.82l-1-1v13.81a1 1 0 0 0 1.91 0v-13.81a1 1 0 0 0 -.95-1h-13.78a1 1 0 0 0 -1 1v13.81a1 1 0 0 0 1 1h13.82a1 1 0 0 0 0-1.93z"/><path d="m340.13 505.28h70.31v32.86h-70.31z" fill="#18c4ff"/><path d="m410.44 537.19h-70.31l1 1v-32.91l-1 1h70.31l-1-1v32.87a1 1 0 0 0 1.91 0v-32.87a1 1 0 0 0 -.95-.95h-70.27a1 1 0 0 0 -1 .95v32.87a1 1 0 0 0 1 1h70.31a1 1 0 0 0 0-1.96z"/><path d="m475.79 795.79h13.82v13.82h-13.82z" fill="#18c4ff"/><path d="m489.6 808.65h-13.81l.95 1v-13.86l-.95 1h13.81l-1-1v13.81a1 1 0 0 0 1.91 0v-13.81a1 1 0 0 0 -1-1h-13.72a1 1 0 0 0 -1 1v13.81a1 1 0 0 0 1 1h13.81a1 1 0 0 0 0-1.95z"/><path d="m510.4 795.79h13.82v13.82h-13.82z" fill="#18c4ff"/><path d="m524.21 808.65h-13.81l1 1v-13.86l-1 1h13.81l-1-1v13.81a1 1 0 0 0 1.91 0v-13.81a1 1 0 0 0 -1-1h-13.72a1 1 0 0 0 -1 1v13.81a1 1 0 0 0 1 1h13.81a1 1 0 0 0 0-1.95z"/><path d="m464.85 801.05h70.31v32.86h-70.31z" fill="#18c4ff"/><path d="m535.15 833h-70.3l.95 1v-32.95l-.95 1h70.3l-.95-1v32.87a1 1 0 0 0 1.91 0v-32.87a1 1 0 0 0 -1-1h-70.3a1 1 0 0 0 -1 1v32.87a1 1 0 0 0 1 1h70.3a1 1 0 0 0 .04-1.92z"/><path d="m475.79 762.92h13.82v13.82h-13.82z" fill="#18c4ff"/><path d="m489.6 775.78h-13.81l.95 1v-13.86l-.95 1h13.81l-1-1v13.82a1 1 0 0 0 1.91 0v-13.82a1 1 0 0 0 -1-1h-13.72a1 1 0 0 0 -1 1v13.82a1 1 0 0 0 1 1h13.81a1 1 0 0 0 0-1.96z"/><path d="m510.4 762.92h13.82v13.82h-13.82z" fill="#18c4ff"/><path d="m524.21 775.78h-13.81l1 1v-13.86l-1 1h13.81l-1-1v13.82a1 1 0 0 0 1.91 0v-13.82a1 1 0 0 0 -1-1h-13.72a1 1 0 0 0 -1 1v13.82a1 1 0 0 0 1 1h13.81a1 1 0 0 0 0-1.96z"/><path d="m464.85 768.19h70.31v32.86h-70.31z" fill="#18c4ff"/><path d="m535.15 800.09h-70.3l.95 1v-32.9l-.95 1h70.3l-.95-1v32.86a1 1 0 0 0 1.91 0v-32.86a1 1 0 0 0 -1-1h-70.3a1 1 0 0 0 -1 1v32.86a1 1 0 0 0 1 1h70.3a1 1 0 0 0 .04-1.96z"/><path d="m475.79 730.06h13.82v13.82h-13.82z" fill="#18c4ff"/><path d="m489.6 742.92h-13.81l.95 1v-13.86l-.95 1h13.81l-1-1v13.82a1 1 0 0 0 1.91 0v-13.82a1 1 0 0 0 -1-1h-13.72a1 1 0 0 0 -1 1v13.82a1 1 0 0 0 1 1h13.81a1 1 0 0 0 0-1.96z"/><path d="m510.4 730.06h13.82v13.82h-13.82z" fill="#18c4ff"/><path d="m524.21 742.92h-13.81l1 1v-13.86l-1 1h13.81l-1-1v13.82a1 1 0 0 0 1.91 0v-13.82a1 1 0 0 0 -1-1h-13.72a1 1 0 0 0 -1 1v13.82a1 1 0 0 0 1 1h13.81a1 1 0 0 0 0-1.96z"/><path d="m464.85 735.33h70.31v32.86h-70.31z" fill="#18c4ff"/><path d="m535.15 767.23h-70.3l.95 1v-32.9l-.95.95h70.3l-.95-.95v32.86a1 1 0 0 0 1.91 0v-32.86a1 1 0 0 0 -1-1h-70.3a1 1 0 0 0 -1 1v32.86a1 1 0 0 0 1 1h70.3a1 1 0 0 0 .04-1.96z"/><path d="m475.79 697.2h13.82v13.82h-13.82z" fill="#18c4ff"/><path d="m489.6 710.06h-13.81l.95 1v-13.86l-.95.95h13.81l-1-.95v13.8a1 1 0 0 0 1.91 0v-13.8a1 1 0 0 0 -1-1h-13.72a1 1 0 0 0 -1 1v13.8a1 1 0 0 0 1 1h13.81a1 1 0 0 0 0-1.94z"/><path d="m510.4 697.2h13.82v13.82h-13.82z" fill="#18c4ff"/><path d="m524.21 710.06h-13.81l1 1v-13.86l-1 .95h13.81l-1-.95v13.8a1 1 0 0 0 1.91 0v-13.8a1 1 0 0 0 -1-1h-13.72a1 1 0 0 0 -1 1v13.8a1 1 0 0 0 1 1h13.81a1 1 0 0 0 0-1.94z"/><path d="m464.85 702.46h70.31v32.86h-70.31z" fill="#18c4ff"/><path d="m535.15 734.37h-70.3l.95 1v-32.91l-.95 1h70.3l-.95-1v32.87a1 1 0 0 0 1.91 0v-32.87a1 1 0 0 0 -1-1h-70.3a1 1 0 0 0 -1 1v32.87a1 1 0 0 0 1 .95h70.3a1 1 0 0 0 .04-1.91z"/><path d="m475.79 664.33h13.82v13.82h-13.82z" fill="#18c4ff"/><path d="m489.6 677.19h-13.81l.95 1v-13.86l-.95 1h13.81l-1-1v13.82a1 1 0 0 0 1.91 0v-13.82a1 1 0 0 0 -1-1h-13.72a1 1 0 0 0 -1 1v13.82a1 1 0 0 0 1 1h13.81a1 1 0 0 0 0-1.96z"/><path d="m510.4 664.33h13.82v13.82h-13.82z" fill="#18c4ff"/><path d="m524.21 677.19h-13.81l1 1v-13.86l-1 1h13.81l-1-1v13.82a1 1 0 0 0 1.91 0v-13.82a1 1 0 0 0 -1-1h-13.72a1 1 0 0 0 -1 1v13.82a1 1 0 0 0 1 1h13.81a1 1 0 0 0 0-1.96z"/><path d="m464.85 669.6h70.31v32.86h-70.31z" fill="#fff"/><path d="m535.15 701.5h-70.3l.95 1v-32.9l-.95 1h70.3l-.95-1v32.86a1 1 0 0 0 1.91 0v-32.86a1 1 0 0 0 -1-1h-70.3a1 1 0 0 0 -1 1v32.86a1 1 0 0 0 1 1h70.3a1 1 0 0 0 .04-1.96z"/><path d="m475.79 631.47h13.82v13.82h-13.82z" fill="#18c4ff"/><path d="m489.6 644.33h-13.81l.95 1v-13.86l-.95 1h13.81l-1-1v13.82a1 1 0 0 0 1.91 0v-13.82a1 1 0 0 0 -1-1h-13.72a1 1 0 0 0 -1 1v13.82a1 1 0 0 0 1 1h13.81a1 1 0 0 0 0-1.96z"/><path d="m510.4 631.47h13.82v13.82h-13.82z" fill="#18c4ff"/><path d="m524.21 644.33h-13.81l1 1v-13.86l-1 1h13.81l-1-1v13.82a1 1 0 0 0 1.91 0v-13.82a1 1 0 0 0 -1-1h-13.72a1 1 0 0 0 -1 1v13.82a1 1 0 0 0 1 1h13.81a1 1 0 0 0 0-1.96z"/><path d="m464.85 636.74h70.31v32.86h-70.31z" fill="#fff"/><path d="m535.15 668.64h-70.3l.95 1v-32.9l-.95 1h70.3l-.95-1v32.86a1 1 0 0 0 1.91 0v-32.86a1 1 0 0 0 -1-1h-70.3a1 1 0 0 0 -1 1v32.86a1 1 0 0 0 1 1h70.3a1 1 0 0 0 .04-1.96z"/><path d="m475.79 598.61h13.82v13.82h-13.82z" fill="#18c4ff"/><path d="m489.6 611.47h-13.81l.95.95v-13.81l-.95.95h13.81l-1-.95v13.81a1 1 0 0 0 1.91 0v-13.81a1 1 0 0 0 -1-1h-13.72a1 1 0 0 0 -1 1v13.81a1 1 0 0 0 1 1h13.81a1 1 0 0 0 0-1.95z"/><path d="m510.4 598.61h13.82v13.82h-13.82z" fill="#18c4ff"/><path d="m524.21 611.47h-13.81l1 .95v-13.81l-1 .95h13.81l-1-.95v13.81a1 1 0 0 0 1.91 0v-13.81a1 1 0 0 0 -1-1h-13.72a1 1 0 0 0 -1 1v13.81a1 1 0 0 0 1 1h13.81a1 1 0 0 0 0-1.95z"/><path d="m464.85 603.87h70.31v32.86h-70.31z"/><path d="m535.15 635.78h-70.3l.95 1v-32.91l-.95 1h70.3l-.95-1v32.87a1 1 0 0 0 1.91 0v-32.87a1 1 0 0 0 -1-1h-70.3a1 1 0 0 0 -1 1v32.87a1 1 0 0 0 1 1h70.3a1 1 0 0 0 .04-1.96z"/><path d="m600.5 795.79h13.82v13.82h-13.82z" fill="#18c4ff"/><path d="m614.32 808.65h-13.82l1 1v-13.86l-1 1h13.82l-1-1v13.81a1 1 0 0 0 1.92 0v-13.81a1 1 0 0 0 -1-1h-13.74a1 1 0 0 0 -1 1v13.81a1 1 0 0 0 1 1h13.82a1 1 0 0 0 0-1.95z"/><path d="m635.11 795.79h13.82v13.82h-13.82z" fill="#18c4ff"/><path d="m648.93 808.65h-13.82l1 1v-13.86l-1 1h13.82l-1-1v13.81a1 1 0 0 0 1.92 0v-13.81a1 1 0 0 0 -1-1h-13.74a1 1 0 0 0 -1 1v13.81a1 1 0 0 0 1 1h13.82a1 1 0 0 0 0-1.95z"/><path d="m589.56 801.05h70.31v32.86h-70.31z" fill="#18c4ff"/><path d="m659.87 833h-70.31l1 1v-32.95l-1 1h70.31l-1-1v32.87a1 1 0 0 0 1.92 0v-32.87a1 1 0 0 0 -1-1h-70.23a1 1 0 0 0 -.95 1v32.87a1 1 0 0 0 .95 1h70.31a1 1 0 0 0 0-1.92z"/><path d="m600.5 762.92h13.82v13.82h-13.82z" fill="#18c4ff"/><path d="m614.32 775.78h-13.82l1 1v-13.86l-1 1h13.82l-1-1v13.82a1 1 0 0 0 1.92 0v-13.82a1 1 0 0 0 -1-1h-13.74a1 1 0 0 0 -1 1v13.82a1 1 0 0 0 1 1h13.82a1 1 0 0 0 0-1.96z"/><path d="m635.11 762.92h13.82v13.82h-13.82z" fill="#18c4ff"/><path d="m648.93 775.78h-13.82l1 1v-13.86l-1 1h13.82l-1-1v13.82a1 1 0 0 0 1.92 0v-13.82a1 1 0 0 0 -1-1h-13.74a1 1 0 0 0 -1 1v13.82a1 1 0 0 0 1 1h13.82a1 1 0 0 0 0-1.96z"/><path d="m589.56 768.19h70.31v32.86h-70.31z" fill="#fff"/><path d="m659.87 800.09h-70.31l1 1v-32.9l-1 1h70.31l-1-1v32.86a1 1 0 0 0 1.92 0v-32.86a1 1 0 0 0 -1-1h-70.23a1 1 0 0 0 -.95 1v32.86a1 1 0 0 0 .95 1h70.31a1 1 0 0 0 0-1.96z"/><path d="m600.5 730.06h13.82v13.82h-13.82z" fill="#18c4ff"/><path d="m614.32 742.92h-13.82l1 1v-13.86l-1 1h13.82l-1-1v13.82a1 1 0 0 0 1.92 0v-13.82a1 1 0 0 0 -1-1h-13.74a1 1 0 0 0 -1 1v13.82a1 1 0 0 0 1 1h13.82a1 1 0 0 0 0-1.96z"/><path d="m635.11 730.06h13.82v13.82h-13.82z" fill="#18c4ff"/><path d="m648.93 742.92h-13.82l1 1v-13.86l-1 1h13.82l-1-1v13.82a1 1 0 0 0 1.92 0v-13.82a1 1 0 0 0 -1-1h-13.74a1 1 0 0 0 -1 1v13.82a1 1 0 0 0 1 1h13.82a1 1 0 0 0 0-1.96z"/><path d="m589.56 735.33h70.31v32.86h-70.31z" fill="#18c4ff"/><path d="m659.87 767.23h-70.31l1 1v-32.9l-1 .95h70.31l-1-.95v32.86a1 1 0 0 0 1.92 0v-32.86a1 1 0 0 0 -1-1h-70.23a1 1 0 0 0 -.95 1v32.86a1 1 0 0 0 .95 1h70.31a1 1 0 0 0 0-1.96z"/><path d="m600.5 697.2h13.82v13.82h-13.82z" fill="#18c4ff"/><path d="m614.32 710.06h-13.82l1 1v-13.86l-1 .95h13.82l-1-.95v13.8a1 1 0 0 0 1.92 0v-13.8a1 1 0 0 0 -1-1h-13.74a1 1 0 0 0 -1 1v13.8a1 1 0 0 0 1 1h13.82a1 1 0 0 0 0-1.94z"/><path d="m635.11 697.2h13.82v13.82h-13.82z" fill="#18c4ff"/><path d="m648.93 710.06h-13.82l1 1v-13.86l-1 .95h13.82l-1-.95v13.8a1 1 0 0 0 1.92 0v-13.8a1 1 0 0 0 -1-1h-13.74a1 1 0 0 0 -1 1v13.8a1 1 0 0 0 1 1h13.82a1 1 0 0 0 0-1.94z"/><path d="m589.56 702.46h70.31v32.86h-70.31z" fill="#fff"/><path d="m659.87 734.37h-70.31l1 1v-32.91l-1 1h70.31l-1-1v32.87a1 1 0 0 0 1.92 0v-32.87a1 1 0 0 0 -1-1h-70.23a1 1 0 0 0 -.95 1v32.87a1 1 0 0 0 .95.95h70.31a1 1 0 0 0 0-1.91z"/><path d="m600.5 664.33h13.82v13.82h-13.82z" fill="#18c4ff"/><path d="m614.32 677.19h-13.82l1 1v-13.86l-1 1h13.82l-1-1v13.82a1 1 0 0 0 1.92 0v-13.82a1 1 0 0 0 -1-1h-13.74a1 1 0 0 0 -1 1v13.82a1 1 0 0 0 1 1h13.82a1 1 0 0 0 0-1.96z"/><path d="m635.11 664.33h13.82v13.82h-13.82z" fill="#18c4ff"/><path d="m648.93 677.19h-13.82l1 1v-13.86l-1 1h13.82l-1-1v13.82a1 1 0 0 0 1.92 0v-13.82a1 1 0 0 0 -1-1h-13.74a1 1 0 0 0 -1 1v13.82a1 1 0 0 0 1 1h13.82a1 1 0 0 0 0-1.96z"/><path d="m589.56 669.6h70.31v32.86h-70.31z" fill="#fff"/><path d="m659.87 701.5h-70.31l1 1v-32.9l-1 1h70.31l-1-1v32.86a1 1 0 0 0 1.92 0v-32.86a1 1 0 0 0 -1-1h-70.23a1 1 0 0 0 -.95 1v32.86a1 1 0 0 0 .95 1h70.31a1 1 0 0 0 0-1.96z"/><path d="m600.5 631.47h13.82v13.82h-13.82z" fill="#18c4ff"/><path d="m614.32 644.33h-13.82l1 1v-13.86l-1 1h13.82l-1-1v13.82a1 1 0 0 0 1.92 0v-13.82a1 1 0 0 0 -1-1h-13.74a1 1 0 0 0 -1 1v13.82a1 1 0 0 0 1 1h13.82a1 1 0 0 0 0-1.96z"/><path d="m635.11 631.47h13.82v13.82h-13.82z" fill="#18c4ff"/><path d="m648.93 644.33h-13.82l1 1v-13.86l-1 1h13.82l-1-1v13.82a1 1 0 0 0 1.92 0v-13.82a1 1 0 0 0 -1-1h-13.74a1 1 0 0 0 -1 1v13.82a1 1 0 0 0 1 1h13.82a1 1 0 0 0 0-1.96z"/><path d="m589.56 636.74h70.31v32.86h-70.31z" fill="#18c4ff"/><path d="m659.87 668.64h-70.31l1 1v-32.9l-1 1h70.31l-1-1v32.86a1 1 0 0 0 1.92 0v-32.86a1 1 0 0 0 -1-1h-70.23a1 1 0 0 0 -.95 1v32.86a1 1 0 0 0 .95 1h70.31a1 1 0 0 0 0-1.96z"/><path d="m600.5 598.61h13.82v13.82h-13.82z" fill="#18c4ff"/><path d="m614.32 611.47h-13.82l1 .95v-13.81l-1 .95h13.82l-1-.95v13.81a1 1 0 0 0 1.92 0v-13.81a1 1 0 0 0 -1-1h-13.74a1 1 0 0 0 -1 1v13.81a1 1 0 0 0 1 1h13.82a1 1 0 0 0 0-1.95z"/><path d="m635.11 598.61h13.82v13.82h-13.82z" fill="#18c4ff"/><path d="m648.93 611.47h-13.82l1 .95v-13.81l-1 .95h13.82l-1-.95v13.81a1 1 0 0 0 1.92 0v-13.81a1 1 0 0 0 -1-1h-13.74a1 1 0 0 0 -1 1v13.81a1 1 0 0 0 1 1h13.82a1 1 0 0 0 0-1.95z"/><path d="m589.56 603.87h70.31v32.86h-70.31z" fill="#18c4ff"/><path d="m659.87 635.78h-70.31l1 1v-32.91l-1 1h70.31l-1-1v32.87a1 1 0 0 0 1.92 0v-32.87a1 1 0 0 0 -1-1h-70.23a1 1 0 0 0 -.95 1v32.87a1 1 0 0 0 .95 1h70.31a1 1 0 0 0 0-1.96z"/><path d="m600.5 565.74h13.82v13.82h-13.82z" fill="#18c4ff"/><path d="m614.32 578.6h-13.82l1 1v-13.86l-1 1h13.82l-1-1v13.82a1 1 0 0 0 1.92 0v-13.82a1 1 0 0 0 -1-1h-13.74a1 1 0 0 0 -1 1v13.82a1 1 0 0 0 1 1h13.82a1 1 0 0 0 0-1.96z"/><path d="m635.11 565.74h13.82v13.82h-13.82z" fill="#18c4ff"/><path d="m648.93 578.6h-13.82l1 1v-13.86l-1 1h13.82l-1-1v13.82a1 1 0 0 0 1.92 0v-13.82a1 1 0 0 0 -1-1h-13.74a1 1 0 0 0 -1 1v13.82a1 1 0 0 0 1 1h13.82a1 1 0 0 0 0-1.96z"/><path d="m589.56 571.01h70.31v32.86h-70.31z" fill="#fff"/><path d="m659.87 602.92h-70.31l1 1v-32.92l-1 1h70.31l-1-1v32.86a1 1 0 0 0 1.92 0v-32.86a1 1 0 0 0 -1-1h-70.23a1 1 0 0 0 -.95 1v32.86a1 1 0 0 0 .95 1h70.31a1 1 0 0 0 0-1.94z"/><path d="m600.5 532.88h13.82v13.82h-13.82z" fill="#18c4ff"/><path d="m614.32 545.74h-13.82l1 1v-13.86l-1 1h13.82l-1-1v13.82a1 1 0 0 0 1.92 0v-13.82a1 1 0 0 0 -1-1h-13.74a1 1 0 0 0 -1 1v13.82a1 1 0 0 0 1 .95h13.82a1 1 0 0 0 0-1.91z"/><path d="m635.11 532.88h13.82v13.82h-13.82z" fill="#18c4ff"/><path d="m648.93 545.74h-13.82l1 1v-13.86l-1 1h13.82l-1-1v13.82a1 1 0 0 0 1.92 0v-13.82a1 1 0 0 0 -1-1h-13.74a1 1 0 0 0 -1 1v13.82a1 1 0 0 0 1 .95h13.82a1 1 0 0 0 0-1.91z"/><path d="m589.56 538.15h70.31v32.86h-70.31z" fill="#fff"/><path d="m659.87 570.05h-70.31l1 1v-32.9l-1 1h70.31l-1-1v32.85a1 1 0 0 0 1.92 0v-32.85a1 1 0 0 0 -1-1h-70.23a1 1 0 0 0 -.95 1v32.85a1 1 0 0 0 .95 1h70.31a1 1 0 0 0 0-1.95z"/><path d="m600.5 500.02h13.82v13.82h-13.82z" fill="#18c4ff"/><path d="m614.32 512.88h-13.82l1 1v-13.88l-1 1h13.82l-1-1v13.81a1 1 0 0 0 1.92 0v-13.81a1 1 0 0 0 -1-1h-13.74a1 1 0 0 0 -1 1v13.81a1 1 0 0 0 1 1h13.82a1 1 0 0 0 0-1.93z"/><path d="m635.11 500.02h13.82v13.82h-13.82z" fill="#18c4ff"/><path d="m648.93 512.88h-13.82l1 1v-13.88l-1 1h13.82l-1-1v13.81a1 1 0 0 0 1.92 0v-13.81a1 1 0 0 0 -1-1h-13.74a1 1 0 0 0 -1 1v13.81a1 1 0 0 0 1 1h13.82a1 1 0 0 0 0-1.93z"/><path d="m589.56 505.28h70.31v32.86h-70.31z" fill="#18c4ff"/><path d="m659.87 537.19h-70.31l1 1v-32.91l-1 1h70.31l-1-1v32.87a1 1 0 0 0 1.92 0v-32.87a1 1 0 0 0 -1-.95h-70.23a1 1 0 0 0 -.95.95v32.87a1 1 0 0 0 .95 1h70.31a1 1 0 0 0 0-1.96z"/><path d="m725.22 795.79h13.82v13.82h-13.82z" fill="#18c4ff"/><path d="m739 808.65h-13.78l1 1v-13.86l-1 1h13.78l-1-1v13.81a1 1 0 0 0 1.92 0v-13.81a1 1 0 0 0 -1-1h-13.7a1 1 0 0 0 -1 1v13.81a1 1 0 0 0 1 1h13.78a1 1 0 0 0 0-1.95z"/><path d="m759.83 795.79h13.82v13.82h-13.82z" fill="#18c4ff"/><path d="m773.65 808.65h-13.82l1 1v-13.86l-1 1h13.82l-1-1v13.81a1 1 0 0 0 1.92 0v-13.81a1 1 0 0 0 -1-1h-13.74a1 1 0 0 0 -1 1v13.81a1 1 0 0 0 1 1h13.82a1 1 0 0 0 0-1.95z"/><path d="m714.28 801.05h70.31v32.86h-70.31z" fill="#fff"/><path d="m784.59 833h-70.31l1 1v-32.95l-1 1h70.31l-1-1v32.87a1 1 0 0 0 1.92 0v-32.87a1 1 0 0 0 -1-1h-70.23a1 1 0 0 0 -.95 1v32.87a1 1 0 0 0 .95 1h70.31a1 1 0 0 0 0-1.92z"/><path d="m725.22 762.92h13.82v13.82h-13.82z" fill="#18c4ff"/><path d="m739 775.78h-13.78l1 1v-13.86l-1 1h13.78l-1-1v13.82a1 1 0 0 0 1.92 0v-13.82a1 1 0 0 0 -1-1h-13.7a1 1 0 0 0 -1 1v13.82a1 1 0 0 0 1 1h13.78a1 1 0 0 0 0-1.96z"/><path d="m759.83 762.92h13.82v13.82h-13.82z" fill="#18c4ff"/><path d="m773.65 775.78h-13.82l1 1v-13.86l-1 1h13.82l-1-1v13.82a1 1 0 0 0 1.92 0v-13.82a1 1 0 0 0 -1-1h-13.74a1 1 0 0 0 -1 1v13.82a1 1 0 0 0 1 1h13.82a1 1 0 0 0 0-1.96z"/><path d="m714.28 768.19h70.31v32.86h-70.31z" fill="#fff"/><path d="m784.59 800.09h-70.31l1 1v-32.9l-1 1h70.31l-1-1v32.86a1 1 0 0 0 1.92 0v-32.86a1 1 0 0 0 -1-1h-70.23a1 1 0 0 0 -.95 1v32.86a1 1 0 0 0 .95 1h70.31a1 1 0 0 0 0-1.96z"/><path d="m725.22 730.06h13.82v13.82h-13.82z" fill="#18c4ff"/><path d="m739 742.92h-13.78l1 1v-13.86l-1 1h13.78l-1-1v13.82a1 1 0 0 0 1.92 0v-13.82a1 1 0 0 0 -1-1h-13.7a1 1 0 0 0 -1 1v13.82a1 1 0 0 0 1 1h13.78a1 1 0 0 0 0-1.96z"/><path d="m759.83 730.06h13.82v13.82h-13.82z" fill="#18c4ff"/><path d="m773.65 742.92h-13.82l1 1v-13.86l-1 1h13.82l-1-1v13.82a1 1 0 0 0 1.92 0v-13.82a1 1 0 0 0 -1-1h-13.74a1 1 0 0 0 -1 1v13.82a1 1 0 0 0 1 1h13.82a1 1 0 0 0 0-1.96z"/><path d="m714.28 735.33h70.31v32.86h-70.31z" fill="#18c4ff"/><path d="m784.59 767.23h-70.31l1 1v-32.9l-1 .95h70.31l-1-.95v32.86a1 1 0 0 0 1.92 0v-32.86a1 1 0 0 0 -1-1h-70.23a1 1 0 0 0 -.95 1v32.86a1 1 0 0 0 .95 1h70.31a1 1 0 0 0 0-1.96z"/><path d="m725.22 697.2h13.82v13.82h-13.82z" fill="#18c4ff"/><path d="m739 710.06h-13.78l1 1v-13.86l-1 .95h13.78l-1-.95v13.8a1 1 0 0 0 1.92 0v-13.8a1 1 0 0 0 -1-1h-13.7a1 1 0 0 0 -1 1v13.8a1 1 0 0 0 1 1h13.78a1 1 0 0 0 0-1.94z"/><path d="m759.83 697.2h13.82v13.82h-13.82z" fill="#18c4ff"/><path d="m773.65 710.06h-13.82l1 1v-13.86l-1 .95h13.82l-1-.95v13.8a1 1 0 0 0 1.92 0v-13.8a1 1 0 0 0 -1-1h-13.74a1 1 0 0 0 -1 1v13.8a1 1 0 0 0 1 1h13.82a1 1 0 0 0 0-1.94z"/><path d="m714.28 702.46h70.31v32.86h-70.31z" fill="#18c4ff"/><path d="m784.59 734.37h-70.31l1 1v-32.91l-1 1h70.31l-1-1v32.87a1 1 0 0 0 1.92 0v-32.87a1 1 0 0 0 -1-1h-70.23a1 1 0 0 0 -.95 1v32.87a1 1 0 0 0 .95.95h70.31a1 1 0 0 0 0-1.91z"/><path d="m725.22 664.33h13.82v13.82h-13.82z" fill="#18c4ff"/><path d="m739 677.19h-13.78l1 1v-13.86l-1 1h13.78l-1-1v13.82a1 1 0 0 0 1.92 0v-13.82a1 1 0 0 0 -1-1h-13.7a1 1 0 0 0 -1 1v13.82a1 1 0 0 0 1 1h13.78a1 1 0 0 0 0-1.96z"/><path d="m759.83 664.33h13.82v13.82h-13.82z" fill="#18c4ff"/><path d="m773.65 677.19h-13.82l1 1v-13.86l-1 1h13.82l-1-1v13.82a1 1 0 0 0 1.92 0v-13.82a1 1 0 0 0 -1-1h-13.74a1 1 0 0 0 -1 1v13.82a1 1 0 0 0 1 1h13.82a1 1 0 0 0 0-1.96z"/><path d="m714.28 669.6h70.31v32.86h-70.31z" fill="#fff"/><path d="m784.59 701.5h-70.31l1 1v-32.9l-1 1h70.31l-1-1v32.86a1 1 0 0 0 1.92 0v-32.86a1 1 0 0 0 -1-1h-70.23a1 1 0 0 0 -.95 1v32.86a1 1 0 0 0 .95 1h70.31a1 1 0 0 0 0-1.96z"/><path d="m725.22 631.47h13.82v13.82h-13.82z" fill="#18c4ff"/><path d="m739 644.33h-13.78l1 1v-13.86l-1 1h13.78l-1-1v13.82a1 1 0 0 0 1.92 0v-13.82a1 1 0 0 0 -1-1h-13.7a1 1 0 0 0 -1 1v13.82a1 1 0 0 0 1 1h13.78a1 1 0 0 0 0-1.96z"/><path d="m759.83 631.47h13.82v13.82h-13.82z" fill="#18c4ff"/><path d="m773.65 644.33h-13.82l1 1v-13.86l-1 1h13.82l-1-1v13.82a1 1 0 0 0 1.92 0v-13.82a1 1 0 0 0 -1-1h-13.74a1 1 0 0 0 -1 1v13.82a1 1 0 0 0 1 1h13.82a1 1 0 0 0 0-1.96z"/><path d="m714.28 636.74h70.31v32.86h-70.31z" fill="#fff"/><path d="m784.59 668.64h-70.31l1 1v-32.9l-1 1h70.31l-1-1v32.86a1 1 0 0 0 1.92 0v-32.86a1 1 0 0 0 -1-1h-70.23a1 1 0 0 0 -.95 1v32.86a1 1 0 0 0 .95 1h70.31a1 1 0 0 0 0-1.96z"/><path d="m725.22 598.61h13.82v13.82h-13.82z" fill="#18c4ff"/><path d="m739 611.47h-13.78l1 .95v-13.81l-1 .95h13.78l-1-.95v13.81a1 1 0 0 0 1.92 0v-13.81a1 1 0 0 0 -1-1h-13.7a1 1 0 0 0 -1 1v13.81a1 1 0 0 0 1 1h13.78a1 1 0 0 0 0-1.95z"/><path d="m759.83 598.61h13.82v13.82h-13.82z" fill="#18c4ff"/><path d="m773.65 611.47h-13.82l1 .95v-13.81l-1 .95h13.82l-1-.95v13.81a1 1 0 0 0 1.92 0v-13.81a1 1 0 0 0 -1-1h-13.74a1 1 0 0 0 -1 1v13.81a1 1 0 0 0 1 1h13.82a1 1 0 0 0 0-1.95z"/><path d="m714.28 603.87h70.31v32.86h-70.31z" fill="#18c4ff"/><path d="m784.59 635.78h-70.31l1 1v-32.91l-1 1h70.31l-1-1v32.87a1 1 0 0 0 1.92 0v-32.87a1 1 0 0 0 -1-1h-70.23a1 1 0 0 0 -.95 1v32.87a1 1 0 0 0 .95 1h70.31a1 1 0 0 0 0-1.96z"/><path d="m725.22 565.74h13.82v13.82h-13.82z" fill="#18c4ff"/><path d="m739 578.6h-13.78l1 1v-13.86l-1 1h13.78l-1-1v13.82a1 1 0 0 0 1.92 0v-13.82a1 1 0 0 0 -1-1h-13.7a1 1 0 0 0 -1 1v13.82a1 1 0 0 0 1 1h13.78a1 1 0 0 0 0-1.96z"/><path d="m759.83 565.74h13.82v13.82h-13.82z" fill="#18c4ff"/><path d="m773.65 578.6h-13.82l1 1v-13.86l-1 1h13.82l-1-1v13.82a1 1 0 0 0 1.92 0v-13.82a1 1 0 0 0 -1-1h-13.74a1 1 0 0 0 -1 1v13.82a1 1 0 0 0 1 1h13.82a1 1 0 0 0 0-1.96z"/><path d="m714.28 571.01h70.31v32.86h-70.31z" fill="#fff"/><path d="m784.59 602.92h-70.31l1 1v-32.92l-1 1h70.31l-1-1v32.86a1 1 0 0 0 1.92 0v-32.86a1 1 0 0 0 -1-1h-70.23a1 1 0 0 0 -.95 1v32.86a1 1 0 0 0 .95 1h70.31a1 1 0 0 0 0-1.94z"/><path d="m725.22 532.88h13.82v13.82h-13.82z" fill="#18c4ff"/><path d="m739 545.74h-13.78l1 1v-13.86l-1 1h13.78l-1-1v13.82a1 1 0 0 0 1.92 0v-13.82a1 1 0 0 0 -1-1h-13.7a1 1 0 0 0 -1 1v13.82a1 1 0 0 0 1 .95h13.78a1 1 0 0 0 0-1.91z"/><path d="m759.83 532.88h13.82v13.82h-13.82z" fill="#18c4ff"/><path d="m773.65 545.74h-13.82l1 1v-13.86l-1 1h13.82l-1-1v13.82a1 1 0 0 0 1.92 0v-13.82a1 1 0 0 0 -1-1h-13.74a1 1 0 0 0 -1 1v13.82a1 1 0 0 0 1 .95h13.82a1 1 0 0 0 0-1.91z"/><path d="m714.28 538.15h70.31v32.86h-70.31z" fill="#18c4ff"/><path d="m784.59 570.05h-70.31l1 1v-32.9l-1 1h70.31l-1-1v32.85a1 1 0 0 0 1.92 0v-32.85a1 1 0 0 0 -1-1h-70.23a1 1 0 0 0 -.95 1v32.85a1 1 0 0 0 .95 1h70.31a1 1 0 0 0 0-1.95z"/><path d="m725.22 500.02h13.82v13.82h-13.82z" fill="#18c4ff"/><path d="m739 512.88h-13.78l1 1v-13.88l-1 1h13.78l-1-1v13.81a1 1 0 0 0 1.92 0v-13.81a1 1 0 0 0 -1-1h-13.7a1 1 0 0 0 -1 1v13.81a1 1 0 0 0 1 1h13.78a1 1 0 0 0 0-1.93z"/><path d="m759.83 500.02h13.82v13.82h-13.82z" fill="#18c4ff"/><path d="m773.65 512.88h-13.82l1 1v-13.88l-1 1h13.82l-1-1v13.81a1 1 0 0 0 1.92 0v-13.81a1 1 0 0 0 -1-1h-13.74a1 1 0 0 0 -1 1v13.81a1 1 0 0 0 1 1h13.82a1 1 0 0 0 0-1.93z"/><path d="m714.28 505.28h70.31v32.86h-70.31z"/><path d="m784.59 537.19h-70.31l1 1v-32.91l-1 1h70.31l-1-1v32.87a1 1 0 0 0 1.92 0v-32.87a1 1 0 0 0 -1-.95h-70.23a1 1 0 0 0 -.95.95v32.87a1 1 0 0 0 .95 1h70.31a1 1 0 0 0 0-1.96z"/><path d="m725.22 467.15h13.82v13.82h-13.82z" fill="#18c4ff"/><path d="m739 480h-13.78l1 1v-13.85l-1 1h13.78l-1-1v13.85a1 1 0 0 0 1.92 0v-13.85a1 1 0 0 0 -1-.95h-13.7a1 1 0 0 0 -1 .95v13.85a1 1 0 0 0 1 1h13.78a1 1 0 0 0 0-2z"/><path d="m759.83 467.15h13.82v13.82h-13.82z" fill="#18c4ff"/><path d="m773.65 480h-13.82l1 1v-13.85l-1 1h13.82l-1-1v13.85a1 1 0 0 0 1.92 0v-13.85a1 1 0 0 0 -1-.95h-13.74a1 1 0 0 0 -1 .95v13.85a1 1 0 0 0 1 1h13.82a1 1 0 0 0 0-2z"/><path d="m714.28 472.42h70.31v32.86h-70.31z" fill="#18c4ff"/><path d="m784.59 504.33h-70.31l1 .95v-32.86l-1 1h70.31l-1-1v32.86a1 1 0 0 0 1.92 0v-32.86a1 1 0 0 0 -1-1h-70.23a1 1 0 0 0 -.95 1v32.86a1 1 0 0 0 .95 1h70.31a1 1 0 0 0 0-1.95z"/><path d="m725.22 434.29h13.82v13.82h-13.82z" fill="#18c4ff"/><path d="m739 447.15h-13.78l1 1v-13.86l-1 1h13.78l-1-1v13.82a1 1 0 0 0 1.92 0v-13.82a1 1 0 0 0 -1-1h-13.7a1 1 0 0 0 -1 1v13.82a1 1 0 0 0 1 .95h13.78a1 1 0 0 0 0-1.91z"/><path d="m759.83 434.29h13.82v13.82h-13.82z" fill="#18c4ff"/><path d="m773.65 447.15h-13.82l1 1v-13.86l-1 1h13.82l-1-1v13.82a1 1 0 0 0 1.92 0v-13.82a1 1 0 0 0 -1-1h-13.74a1 1 0 0 0 -1 1v13.82a1 1 0 0 0 1 .95h13.82a1 1 0 0 0 0-1.91z"/><path d="m714.28 439.56h70.31v32.86h-70.31z"/><path d="m784.59 471.46h-70.31l1 1v-32.9l-1 .95h70.31l-1-.95v32.86a1 1 0 0 0 1.92 0v-32.86a1 1 0 0 0 -1-1h-70.23a1 1 0 0 0 -.95 1v32.86a1 1 0 0 0 .95 1h70.31a1 1 0 0 0 0-1.96z"/><path d="m725.22 401.43h13.82v13.82h-13.82z" fill="#18c4ff"/><path d="m739 414.29h-13.78l1 .95v-13.81l-1 .95h13.78l-1-.95v13.81a1 1 0 0 0 1.92 0v-13.81a1 1 0 0 0 -1-1h-13.7a1 1 0 0 0 -1 1v13.81a1 1 0 0 0 1 1h13.78a1 1 0 0 0 0-1.95z"/><path d="m759.83 401.43h13.82v13.82h-13.82z" fill="#18c4ff"/><path d="m773.65 414.29h-13.82l1 .95v-13.81l-1 .95h13.82l-1-.95v13.81a1 1 0 0 0 1.92 0v-13.81a1 1 0 0 0 -1-1h-13.74a1 1 0 0 0 -1 1v13.81a1 1 0 0 0 1 1h13.82a1 1 0 0 0 0-1.95z"/><path d="m714.28 406.69h70.31v32.86h-70.31z" fill="#18c4ff"/><path d="m784.59 438.6h-70.31l1 1v-32.91l-1 1h70.31l-1-1v32.87a1 1 0 0 0 1.92 0v-32.87a1 1 0 0 0 -1-.95h-70.23a1 1 0 0 0 -.95.95v32.87a1 1 0 0 0 .95.95h70.31a1 1 0 0 0 0-1.91z"/><path d="m849.94 795.79h13.82v13.82h-13.82z" fill="#18c4ff"/><path d="m863.76 808.65h-13.82l1 1v-13.86l-1 1h13.82l-1-1v13.81a1 1 0 0 0 1.92 0v-13.81a1 1 0 0 0 -1-1h-13.74a1 1 0 0 0 -1 1v13.81a1 1 0 0 0 1 1h13.82a1 1 0 0 0 0-1.95z"/><path d="m884.55 795.79h13.82v13.82h-13.82z" fill="#18c4ff"/><path d="m898.37 808.65h-13.82l1 1v-13.86l-1 1h13.82l-1-1v13.81a1 1 0 0 0 1.92 0v-13.81a1 1 0 0 0 -1-1h-13.74a1 1 0 0 0 -1 1v13.81a1 1 0 0 0 1 1h13.82a1 1 0 0 0 0-1.95z"/><path d="m839 801.05h70.31v32.86h-70.31z"/><path d="m909.31 833h-70.31l1 1v-32.95l-1 1h70.31l-1-1v32.87a1 1 0 0 0 1.92 0v-32.87a1 1 0 0 0 -1-1h-70.23a1 1 0 0 0 -1 1v32.87a1 1 0 0 0 1 1h70.31a1 1 0 0 0 0-1.92z"/><path d="m849.94 762.92h13.82v13.82h-13.82z" fill="#18c4ff"/><path d="m863.76 775.78h-13.82l1 1v-13.86l-1 1h13.82l-1-1v13.82a1 1 0 0 0 1.92 0v-13.82a1 1 0 0 0 -1-1h-13.74a1 1 0 0 0 -1 1v13.82a1 1 0 0 0 1 1h13.82a1 1 0 0 0 0-1.96z"/><path d="m884.55 762.92h13.82v13.82h-13.82z" fill="#18c4ff"/><path d="m898.37 775.78h-13.82l1 1v-13.86l-1 1h13.82l-1-1v13.82a1 1 0 0 0 1.92 0v-13.82a1 1 0 0 0 -1-1h-13.74a1 1 0 0 0 -1 1v13.82a1 1 0 0 0 1 1h13.82a1 1 0 0 0 0-1.96z"/><path d="m839 768.19h70.31v32.86h-70.31z"/><path d="m909.31 800.09h-70.31l1 1v-32.9l-1 1h70.31l-1-1v32.86a1 1 0 0 0 1.92 0v-32.86a1 1 0 0 0 -1-1h-70.23a1 1 0 0 0 -1 1v32.86a1 1 0 0 0 1 1h70.31a1 1 0 0 0 0-1.96z"/><path d="m849.94 730.06h13.82v13.82h-13.82z" fill="#18c4ff"/><path d="m863.76 742.92h-13.82l1 1v-13.86l-1 1h13.82l-1-1v13.82a1 1 0 0 0 1.92 0v-13.82a1 1 0 0 0 -1-1h-13.74a1 1 0 0 0 -1 1v13.82a1 1 0 0 0 1 1h13.82a1 1 0 0 0 0-1.96z"/><path d="m884.55 730.06h13.82v13.82h-13.82z" fill="#18c4ff"/><path d="m898.37 742.92h-13.82l1 1v-13.86l-1 1h13.82l-1-1v13.82a1 1 0 0 0 1.92 0v-13.82a1 1 0 0 0 -1-1h-13.74a1 1 0 0 0 -1 1v13.82a1 1 0 0 0 1 1h13.82a1 1 0 0 0 0-1.96z"/><path d="m839 735.33h70.31v32.86h-70.31z" fill="#18c4ff"/><path d="m909.31 767.23h-70.31l1 1v-32.9l-1 .95h70.31l-1-.95v32.86a1 1 0 0 0 1.92 0v-32.86a1 1 0 0 0 -1-1h-70.23a1 1 0 0 0 -1 1v32.86a1 1 0 0 0 1 1h70.31a1 1 0 0 0 0-1.96z"/><path d="m849.94 697.2h13.82v13.82h-13.82z" fill="#18c4ff"/><path d="m863.76 710.06h-13.82l1 1v-13.86l-1 .95h13.82l-1-.95v13.8a1 1 0 0 0 1.92 0v-13.8a1 1 0 0 0 -1-1h-13.74a1 1 0 0 0 -1 1v13.8a1 1 0 0 0 1 1h13.82a1 1 0 0 0 0-1.94z"/><path d="m884.55 697.2h13.82v13.82h-13.82z" fill="#18c4ff"/><path d="m898.37 710.06h-13.82l1 1v-13.86l-1 .95h13.82l-1-.95v13.8a1 1 0 0 0 1.92 0v-13.8a1 1 0 0 0 -1-1h-13.74a1 1 0 0 0 -1 1v13.8a1 1 0 0 0 1 1h13.82a1 1 0 0 0 0-1.94z"/><path d="m839 702.46h70.31v32.86h-70.31z" fill="#fff"/><path d="m909.31 734.37h-70.31l1 1v-32.91l-1 1h70.31l-1-1v32.87a1 1 0 0 0 1.92 0v-32.87a1 1 0 0 0 -1-1h-70.23a1 1 0 0 0 -1 1v32.87a1 1 0 0 0 1 .95h70.31a1 1 0 0 0 0-1.91z"/><path d="m849.94 664.33h13.82v13.82h-13.82z" fill="#18c4ff"/><path d="m863.76 677.19h-13.82l1 1v-13.86l-1 1h13.82l-1-1v13.82a1 1 0 0 0 1.92 0v-13.82a1 1 0 0 0 -1-1h-13.74a1 1 0 0 0 -1 1v13.82a1 1 0 0 0 1 1h13.82a1 1 0 0 0 0-1.96z"/><path d="m884.55 664.33h13.82v13.82h-13.82z" fill="#18c4ff"/><path d="m898.37 677.19h-13.82l1 1v-13.86l-1 1h13.82l-1-1v13.82a1 1 0 0 0 1.92 0v-13.82a1 1 0 0 0 -1-1h-13.74a1 1 0 0 0 -1 1v13.82a1 1 0 0 0 1 1h13.82a1 1 0 0 0 0-1.96z"/><path d="m839 669.6h70.31v32.86h-70.31z" fill="#18c4ff"/><path d="m909.31 701.5h-70.31l1 1v-32.9l-1 1h70.31l-1-1v32.86a1 1 0 0 0 1.92 0v-32.86a1 1 0 0 0 -1-1h-70.23a1 1 0 0 0 -1 1v32.86a1 1 0 0 0 1 1h70.31a1 1 0 0 0 0-1.96z"/><path d="m849.94 631.47h13.82v13.82h-13.82z" fill="#18c4ff"/><path d="m863.76 644.33h-13.82l1 1v-13.86l-1 1h13.82l-1-1v13.82a1 1 0 0 0 1.92 0v-13.82a1 1 0 0 0 -1-1h-13.74a1 1 0 0 0 -1 1v13.82a1 1 0 0 0 1 1h13.82a1 1 0 0 0 0-1.96z"/><path d="m884.55 631.47h13.82v13.82h-13.82z" fill="#18c4ff"/><path d="m898.37 644.33h-13.82l1 1v-13.86l-1 1h13.82l-1-1v13.82a1 1 0 0 0 1.92 0v-13.82a1 1 0 0 0 -1-1h-13.74a1 1 0 0 0 -1 1v13.82a1 1 0 0 0 1 1h13.82a1 1 0 0 0 0-1.96z"/><path d="m839 636.74h70.31v32.86h-70.31z" fill="#fff"/><path d="m909.31 668.64h-70.31l1 1v-32.9l-1 1h70.31l-1-1v32.86a1 1 0 0 0 1.92 0v-32.86a1 1 0 0 0 -1-1h-70.23a1 1 0 0 0 -1 1v32.86a1 1 0 0 0 1 1h70.31a1 1 0 0 0 0-1.96z"/><path d="m849.94 598.61h13.82v13.82h-13.82z" fill="#18c4ff"/><path d="m863.76 611.47h-13.82l1 .95v-13.81l-1 .95h13.82l-1-.95v13.81a1 1 0 0 0 1.92 0v-13.81a1 1 0 0 0 -1-1h-13.74a1 1 0 0 0 -1 1v13.81a1 1 0 0 0 1 1h13.82a1 1 0 0 0 0-1.95z"/><path d="m884.55 598.61h13.82v13.82h-13.82z" fill="#18c4ff"/><path d="m898.37 611.47h-13.82l1 .95v-13.81l-1 .95h13.82l-1-.95v13.81a1 1 0 0 0 1.92 0v-13.81a1 1 0 0 0 -1-1h-13.74a1 1 0 0 0 -1 1v13.81a1 1 0 0 0 1 1h13.82a1 1 0 0 0 0-1.95z"/><path d="m839 603.87h70.31v32.86h-70.31z" fill="#fff"/><path d="m909.31 635.78h-70.31l1 1v-32.91l-1 1h70.31l-1-1v32.87a1 1 0 0 0 1.92 0v-32.87a1 1 0 0 0 -1-1h-70.23a1 1 0 0 0 -1 1v32.87a1 1 0 0 0 1 1h70.31a1 1 0 0 0 0-1.96z"/><path d="m849.94 565.74h13.82v13.82h-13.82z" fill="#18c4ff"/><path d="m863.76 578.6h-13.82l1 1v-13.86l-1 1h13.82l-1-1v13.82a1 1 0 0 0 1.92 0v-13.82a1 1 0 0 0 -1-1h-13.74a1 1 0 0 0 -1 1v13.82a1 1 0 0 0 1 1h13.82a1 1 0 0 0 0-1.96z"/><path d="m884.55 565.74h13.82v13.82h-13.82z" fill="#18c4ff"/><path d="m898.37 578.6h-13.82l1 1v-13.86l-1 1h13.82l-1-1v13.82a1 1 0 0 0 1.92 0v-13.82a1 1 0 0 0 -1-1h-13.74a1 1 0 0 0 -1 1v13.82a1 1 0 0 0 1 1h13.82a1 1 0 0 0 0-1.96z"/><path d="m839 571.01h70.31v32.86h-70.31z" fill="#18c4ff"/><path d="m909.31 602.92h-70.31l1 1v-32.92l-1 1h70.31l-1-1v32.86a1 1 0 0 0 1.92 0v-32.86a1 1 0 0 0 -1-1h-70.23a1 1 0 0 0 -1 1v32.86a1 1 0 0 0 1 1h70.31a1 1 0 0 0 0-1.94z"/><path d="m849.94 532.88h13.82v13.82h-13.82z" fill="#18c4ff"/><path d="m863.76 545.74h-13.82l1 1v-13.86l-1 1h13.82l-1-1v13.82a1 1 0 0 0 1.92 0v-13.82a1 1 0 0 0 -1-1h-13.74a1 1 0 0 0 -1 1v13.82a1 1 0 0 0 1 .95h13.82a1 1 0 0 0 0-1.91z"/><path d="m884.55 532.88h13.82v13.82h-13.82z" fill="#18c4ff"/><path d="m898.37 545.74h-13.82l1 1v-13.86l-1 1h13.82l-1-1v13.82a1 1 0 0 0 1.92 0v-13.82a1 1 0 0 0 -1-1h-13.74a1 1 0 0 0 -1 1v13.82a1 1 0 0 0 1 .95h13.82a1 1 0 0 0 0-1.91z"/><path d="m839 538.15h70.31v32.86h-70.31z"/><path d="m909.31 570.05h-70.31l1 1v-32.9l-1 1h70.31l-1-1v32.85a1 1 0 0 0 1.92 0v-32.85a1 1 0 0 0 -1-1h-70.23a1 1 0 0 0 -1 1v32.85a1 1 0 0 0 1 1h70.31a1 1 0 0 0 0-1.95z"/><path d="m849.94 500.02h13.82v13.82h-13.82z" fill="#18c4ff"/><path d="m863.76 512.88h-13.82l1 1v-13.88l-1 1h13.82l-1-1v13.81a1 1 0 0 0 1.92 0v-13.81a1 1 0 0 0 -1-1h-13.74a1 1 0 0 0 -1 1v13.81a1 1 0 0 0 1 1h13.82a1 1 0 0 0 0-1.93z"/><path d="m884.55 500.02h13.82v13.82h-13.82z" fill="#18c4ff"/><path d="m898.37 512.88h-13.82l1 1v-13.88l-1 1h13.82l-1-1v13.81a1 1 0 0 0 1.92 0v-13.81a1 1 0 0 0 -1-1h-13.74a1 1 0 0 0 -1 1v13.81a1 1 0 0 0 1 1h13.82a1 1 0 0 0 0-1.93z"/><path d="m839 505.28h70.31v32.86h-70.31z"/><path d="m909.31 537.19h-70.31l1 1v-32.91l-1 1h70.31l-1-1v32.87a1 1 0 0 0 1.92 0v-32.87a1 1 0 0 0 -1-.95h-70.23a1 1 0 0 0 -1 .95v32.87a1 1 0 0 0 1 1h70.31a1 1 0 0 0 0-1.96z"/><path d="m849.94 467.15h13.82v13.82h-13.82z" fill="#18c4ff"/><path d="m863.76 480h-13.82l1 1v-13.85l-1 1h13.82l-1-1v13.85a1 1 0 0 0 1.92 0v-13.85a1 1 0 0 0 -1-.95h-13.74a1 1 0 0 0 -1 .95v13.85a1 1 0 0 0 1 1h13.82a1 1 0 0 0 0-2z"/><path d="m884.55 467.15h13.82v13.82h-13.82z" fill="#18c4ff"/><path d="m898.37 480h-13.82l1 1v-13.85l-1 1h13.82l-1-1v13.85a1 1 0 0 0 1.92 0v-13.85a1 1 0 0 0 -1-.95h-13.74a1 1 0 0 0 -1 .95v13.85a1 1 0 0 0 1 1h13.82a1 1 0 0 0 0-2z"/><path d="m839 472.42h70.31v32.86h-70.31z" fill="#18c4ff"/><path d="m909.31 504.33h-70.31l1 .95v-32.86l-1 1h70.31l-1-1v32.86a1 1 0 0 0 1.92 0v-32.86a1 1 0 0 0 -1-1h-70.23a1 1 0 0 0 -1 1v32.86a1 1 0 0 0 1 1h70.31a1 1 0 0 0 0-1.95z"/><path d="m849.94 434.29h13.82v13.82h-13.82z" fill="#18c4ff"/><path d="m863.76 447.15h-13.82l1 1v-13.86l-1 1h13.82l-1-1v13.82a1 1 0 0 0 1.92 0v-13.82a1 1 0 0 0 -1-1h-13.74a1 1 0 0 0 -1 1v13.82a1 1 0 0 0 1 .95h13.82a1 1 0 0 0 0-1.91z"/><path d="m884.55 434.29h13.82v13.82h-13.82z" fill="#18c4ff"/><path d="m898.37 447.15h-13.82l1 1v-13.86l-1 1h13.82l-1-1v13.82a1 1 0 0 0 1.92 0v-13.82a1 1 0 0 0 -1-1h-13.74a1 1 0 0 0 -1 1v13.82a1 1 0 0 0 1 .95h13.82a1 1 0 0 0 0-1.91z"/><path d="m839 439.56h70.31v32.86h-70.31z" fill="#fff"/><path d="m909.31 471.46h-70.31l1 1v-32.9l-1 .95h70.31l-1-.95v32.86a1 1 0 0 0 1.92 0v-32.86a1 1 0 0 0 -1-1h-70.23a1 1 0 0 0 -1 1v32.86a1 1 0 0 0 1 1h70.31a1 1 0 0 0 0-1.96z"/><path d="m849.94 401.43h13.82v13.82h-13.82z" fill="#18c4ff"/><path d="m863.76 414.29h-13.82l1 .95v-13.81l-1 .95h13.82l-1-.95v13.81a1 1 0 0 0 1.92 0v-13.81a1 1 0 0 0 -1-1h-13.74a1 1 0 0 0 -1 1v13.81a1 1 0 0 0 1 1h13.82a1 1 0 0 0 0-1.95z"/><path d="m884.55 401.43h13.82v13.82h-13.82z" fill="#18c4ff"/><path d="m898.37 414.29h-13.82l1 .95v-13.81l-1 .95h13.82l-1-.95v13.81a1 1 0 0 0 1.92 0v-13.81a1 1 0 0 0 -1-1h-13.74a1 1 0 0 0 -1 1v13.81a1 1 0 0 0 1 1h13.82a1 1 0 0 0 0-1.95z"/><path d="m839 406.69h70.31v32.86h-70.31z" fill="#fff"/><path d="m909.31 438.6h-70.31l1 1v-32.91l-1 1h70.31l-1-1v32.87a1 1 0 0 0 1.92 0v-32.87a1 1 0 0 0 -1-.95h-70.23a1 1 0 0 0 -1 .95v32.87a1 1 0 0 0 1 .95h70.31a1 1 0 0 0 0-1.91z"/><path d="m849.94 368.56h13.82v13.82h-13.82z" fill="#18c4ff"/><path d="m863.76 381.42h-13.82l1 1v-13.86l-1 1h13.82l-1-1v13.82a1 1 0 0 0 1.92 0v-13.82a1 1 0 0 0 -1-.95h-13.74a1 1 0 0 0 -1 .95v13.82a1 1 0 0 0 1 1h13.82a1 1 0 0 0 0-1.96z"/><path d="m884.55 368.56h13.82v13.82h-13.82z" fill="#18c4ff"/><path d="m898.37 381.42h-13.82l1 1v-13.86l-1 1h13.82l-1-1v13.82a1 1 0 0 0 1.92 0v-13.82a1 1 0 0 0 -1-.95h-13.74a1 1 0 0 0 -1 .95v13.82a1 1 0 0 0 1 1h13.82a1 1 0 0 0 0-1.96z"/><path d="m839 373.83h70.31v32.86h-70.31z" fill="#fff"/><path d="m909.31 405.74h-70.31l1 .95v-32.86l-1 1h70.31l-1-1v32.86a1 1 0 0 0 1.92 0v-32.86a1 1 0 0 0 -1-1h-70.23a1 1 0 0 0 -1 1v32.86a1 1 0 0 0 1 1h70.31a1 1 0 0 0 0-1.95z"/><path d="m849.94 335.7h13.82v13.82h-13.82z" fill="#18c4ff"/><path d="m863.76 348.56h-13.82l1 1v-13.86l-1 1h13.82l-1-1v13.82a1 1 0 0 0 1.92 0v-13.82a1 1 0 0 0 -1-1h-13.74a1 1 0 0 0 -1 1v13.82a1 1 0 0 0 1 1h13.82a1 1 0 0 0 0-1.96z"/><path d="m884.55 335.7h13.82v13.82h-13.82z" fill="#18c4ff"/><path d="m898.37 348.56h-13.82l1 1v-13.86l-1 1h13.82l-1-1v13.82a1 1 0 0 0 1.92 0v-13.82a1 1 0 0 0 -1-1h-13.74a1 1 0 0 0 -1 1v13.82a1 1 0 0 0 1 1h13.82a1 1 0 0 0 0-1.96z"/><path d="m839 340.97h70.31v32.86h-70.31z" fill="#18c4ff"/><path d="m909.31 372.87h-70.31l1 1v-32.87l-1 .95h70.31l-1-.95v32.86a1 1 0 0 0 1.92 0v-32.86a1 1 0 0 0 -1-1h-70.23a1 1 0 0 0 -1 1v32.86a1 1 0 0 0 1 1h70.31a1 1 0 0 0 0-1.99z"/><path d="m849.94 302.84h13.82v13.82h-13.82z" fill="#18c4ff"/><path d="m863.76 315.7h-13.82l1 .95v-13.81l-1 1h13.82l-1-1v13.81a1 1 0 0 0 1.92 0v-13.81a1 1 0 0 0 -1-1h-13.74a1 1 0 0 0 -1 1v13.81a1 1 0 0 0 1 1h13.82a1 1 0 0 0 0-1.95z"/><path d="m884.55 302.84h13.82v13.82h-13.82z" fill="#18c4ff"/><path d="m898.37 315.7h-13.82l1 .95v-13.81l-1 1h13.82l-1-1v13.81a1 1 0 0 0 1.92 0v-13.81a1 1 0 0 0 -1-1h-13.74a1 1 0 0 0 -1 1v13.81a1 1 0 0 0 1 1h13.82a1 1 0 0 0 0-1.95z"/><path d="m839 308.1h70.31v32.86h-70.31z" fill="#18c4ff"/><path d="m909.31 340h-70.31l1 1v-32.9l-1 1h70.31l-1-1v32.9a1 1 0 0 0 1.92 0v-32.9a1 1 0 0 0 -1-1h-70.23a1 1 0 0 0 -1 1v32.9a1 1 0 0 0 1 .95h70.31a1 1 0 0 0 0-1.95z"/><path d="m25 833.92h950v24.31h-950z" fill="#18c4ff"/><path d="m25 834.87h911.44c12.3 0 24.64.26 36.94 0h1.62a1 1 0 0 0 0-1.91h-911.44c-12.3 0-24.64-.26-36.94 0h-1.62a1 1 0 0 0 0 1.91z"/><path d="m151.44 580.77c.74-19.42 3.86-39.7 11.81-57.44 2.42-5.39 5.3-10.82 10-14.42s11.63-4.87 16.52-1.54a15.52 15.52 0 0 1 25.69-7.68 11.5 11.5 0 0 1 21.81-3.76c2.39-4.64 9.15-5.51 13.7-3s7.24 7.46 9.1 12.34a64.7 64.7 0 0 1 4.2 24.63c-.14 5.79-1.95 12.67-7.46 14.44-5 1.6-10.86-3.2-10.26-8.42q-1.64 9.82-3.43 19.63c-1.25 6.85-2.58 13.75-5.27 20.18-8.63 20.58-30.56 33.38-52.71 36.14-5.73.71-11.63.85-17.2-.68s-10.81-4.86-13.72-9.85c-3.54-6.08-3.21-13.58-2.77-20.61" fill="#fff"/><path d="m225.96 525.11h13.82v13.82h-13.82z" fill="#18c4ff"/><path d="m239.78 538h-13.78l1 1v-13.89l-1 1h13.82l-1-1v13.82a1 1 0 0 0 1.92 0v-13.82a1 1 0 0 0 -1-1h-13.74a1 1 0 0 0 -1 1v13.82a1 1 0 0 0 1 1h13.82a1 1 0 0 0 -.04-1.93z"/><path d="m260.57 525.11h13.82v13.82h-13.82z" fill="#18c4ff"/><path d="m274.39 538h-13.82l1 1v-13.89l-1 1h13.82l-1-1v13.82a1 1 0 0 0 1.92 0v-13.82a1 1 0 0 0 -1-1h-13.74a1 1 0 0 0 -1 1v13.82a1 1 0 0 0 1 1h13.82a1 1 0 0 0 0-1.93z"/><path d="m215.02 530.38h70.31v32.86h-70.31z" fill="#18c4ff"/><path d="m285.33 562.28h-70.33l1 1v-32.9l-1 1h70.31l-1-1v32.86a1 1 0 0 0 1.92 0v-32.86a1 1 0 0 0 -1-1h-70.23a1 1 0 0 0 -1 1v32.86a1 1 0 0 0 1 1h70.31a1 1 0 0 0 .02-1.96z"/><path d="m189.32 611.27c16.93-2.61 35.46-11.32 49.21-22.88 6.05-5.08 11.58-11.18 14.11-18.66s1.48-16.56-4.17-22.07a8.88 8.88 0 0 0 -5.42-2.79c-3.13-.2-6 2.17-7.28 5s-1.36 6.11-1.26 9.24c-5.43-.39-10.72 1.65-15.69 3.88-7.95 3.57-15.49 8.28-21.19 15-6.49 7.61-9 17.55-9.69 27.35" fill="#fff"/><path d="m203.92 571.94a66.29 66.29 0 0 1 29.69-10.74 1.09 1.09 0 0 0 1.06-1.06 17.59 17.59 0 0 1 2.86-10c1.75-2.65 4.89-5.72 8.36-4.57 1.4.46 2-1.76.61-2.21-4.06-1.31-7.86 1.56-10.16 4.66a19.67 19.67 0 0 0 -3.79 12.1l1.06-1.06a60.45 60.45 0 0 0 -30.35 11.72c-.65.5-.06 1.62.66 1.14z"/><path d="m171.28 511.65a14.59 14.59 0 0 1 16.78-3.7c6.38 2.86 8.28 9.61 11.38 15.31.57 1.06 2 .12 1.58-.93-.82-1.87-1.77-3.69-2.67-5.53a36.24 36.24 0 0 0 -2.7-4.88 16.38 16.38 0 0 0 -7.6-6 15.91 15.91 0 0 0 -17.72 4.75c-.54.65.37 1.59.95.95z"/><path d="m209.52 496.94a28.51 28.51 0 0 1 12 17.58c.23 1.08 1.89.63 1.65-.45a29 29 0 0 0 -13-18.29c-.74-.45-1.39.69-.68 1.16z"/><path d="m236.34 495.32a18.76 18.76 0 0 1 3.66 11.79c0 .94 1.42.93 1.46 0a19.23 19.23 0 0 0 -4.12-12.58c-.45-.59-1.48.19-1 .79z"/><path d="m246.81 531.85a10 10 0 0 0 2.41 11.57 9.63 9.63 0 0 0 11.61.37c3.89-2.83 4.7-8.62 5.3-13.06a43.69 43.69 0 0 0 -.36-14.43 30.28 30.28 0 0 0 -7-14.31c-.74-.82-1.95.4-1.21 1.22 5.67 6.29 7.64 14.9 7.27 23.19-.18 4.15-.73 8.79-2.41 12.62a7.8 7.8 0 0 1 -9.86 4.37c-4.39-1.55-6.07-6.92-4.53-11 .25-.68-.89-1.17-1.19-.5z"/><path d="m158.5 536.77c-4.47 18-8.76 36.13-9.46 54.73a112.2 112.2 0 0 0 .43 15.77c.12 1.19 2 1.23 1.89 0a155.65 155.65 0 0 1 .61-27.39c1-9.23 2.75-18.34 4.57-27.44 1-5.12 2.14-10.22 3.24-15.32.19-.83-1.08-1.19-1.28-.35z"/><path d="m250.14 573.63a168.67 168.67 0 0 1 -11.51 14.06 60.86 60.86 0 0 1 -6.5 6 59 59 0 0 1 -7.54 4.85c-1.19.68-.14 2.33 1 1.79 5.53-2.46 10.33-6.89 14.37-11.3a137.22 137.22 0 0 0 11.27-14.78c.49-.7-.64-1.32-1.14-.66z"/><g fill="#18c4ff"><path d="m199 334.69a44.59 44.59 0 0 0 -23.2 22.17c-5.42 11.25-6.12 24.22-3.22 36.26 2.71 11.27 8.52 22.18 17.34 29.83 7.91 6.86 18.46 10.88 28.89 8.24s19.83-11.24 20-22.48a1.08 1.08 0 0 0 -.79-1c-5.6-2-11.5 0-15.87 3.71a21.78 21.78 0 0 0 -7.58 16.16c-.14 7.32 2.77 14.35 6.58 20.46a59.19 59.19 0 0 0 13.85 15.69c5.9 4.53 13.07 7.38 20.57 5.83 1.38-.28.79-2.38-.59-2.11-12.59 2.44-23.48-8.47-30-17.85-6.89-9.87-12.41-24.23-3.33-34.59 3.94-4.49 10-7.32 15.88-5.27l-.78-1c-.14 9.43-7.66 16.88-16.19 19.81-9.56 3.24-19.56.45-27.41-5.55-8.72-6.68-14.61-16.62-17.8-27-3.46-11.3-3.73-23.71.47-34.86 4.14-11 12.61-20.58 23.53-25.16.77-.33.45-1.61-.36-1.29z"/><path d="m271.57 383.65 14.55 59.07c1.39 5.65 2.83 11.29 4.25 16.93.25 1 1.8.58 1.56-.43-4.79-19.71-9.72-39.38-14.61-59.06l-4.21-16.93a.8.8 0 0 0 -1.54.42z"/><path d="m311.38 371.76c6.89 21.66 5.32 44.65 6.76 67a161.28 161.28 0 0 0 2.18 18.73c.2 1.1 1.87.64 1.67-.46-3.94-22.21-1.91-44.91-5.07-67.2a107 107 0 0 0 -4.25-18.44c-.27-.81-1.55-.47-1.29.35z"/><path d="m367.54 401.65a243 243 0 0 1 -6.2 53.27c-.23 1 1.34 1.46 1.58.43a237.3 237.3 0 0 0 6.2-53.7.79.79 0 0 0 -1.58 0z"/><path d="m616.34 392.67a.64.64 0 0 0 0-1.28.64.64 0 0 0 0 1.28z"/><path d="m613.11 429.26c21.36-14.77 42.44-29.95 63.41-45.26q15.72-11.49 31.35-23.12c9.2-6.84 18.86-13.49 26.52-22.11 7.05-7.92 12.25-17.87 12.37-28.67a26.79 26.79 0 0 0 -3.63-14.44c-2.4-3.78-6.74-7.4-11.53-6.26-3.12.75-5 4.13-4.94 7.16 0 3.8 3.16 6.15 6.82 4.85 2.66-.93 5-3 7.24-4.62q3.84-2.73 7.66-5.48 7.83-5.64 15.61-11.38 30.5-22.51 59.94-46.44 3.66-3 7.3-6c1-.83-.44-2.26-1.44-1.44q-27.69 22.77-56.37 44.3-14.38 10.8-29 21.29l-7.28 5.18c-1.79 1.27-4.43 3.66-6.81 2.75-2.73-1.06-1.66-5.38-.2-7 3.13-3.53 8.32.14 10.46 2.94 3 3.9 4.13 9.14 4.18 14 .1 10.41-4.83 20.11-11.58 27.77-7.2 8.17-16.2 14.51-24.86 21q-14.72 11-29.52 21.88-29.41 21.61-59.14 42.84c-2.41 1.71-4.81 3.45-7.22 5.17-.68.49 0 1.63.66 1.14z"/><path d="m831.19 227a.65.65 0 0 0 0-1.3.65.65 0 0 0 0 1.3z"/><path d="m793.78 214.23c1.88 2.17 4.74 2.84 7.38 3.61l10.8 3.1c7.2 2.06 14.4 4.13 21.61 6.16l-.68-1.19a318.28 318.28 0 0 0 -14.29 43 1 1 0 0 0 2 .54 331.82 331.82 0 0 1 14.18-43 1 1 0 0 0 -.68-1.19c-6.9-1.89-13.81-3.74-20.72-5.61l-10.13-2.71c-2.89-.78-6.44-1.25-8.55-3.58-.56-.61-1.44.29-.9.9z"/></g></svg>