<?xml version="1.0" encoding="utf-8"?>
<!-- Generator: Adobe Illustrator 27.5.0, SVG Export Plug-In . SVG Version: 6.00 Build 0)  -->
<svg version="1.1" xmlns="http://www.w3.org/2000/svg" xmlns:xlink="http://www.w3.org/1999/xlink" x="0px" y="0px"
	 viewBox="0 0 680 550" style="enable-background:new 0 0 680 550;" xml:space="preserve">
<g id="BACKGROUND">
	<g>
		<rect style="fill:#FFFFFF;" width="680" height="550"/>
		<rect y="458.551" style="fill:#BBD3F9;" width="680" height="91.449"/>
		<ellipse style="fill:#9AB8E5;" cx="338.046" cy="492.881" rx="62.222" ry="11.395"/>
		<ellipse style="fill:#9AB8E5;" cx="170.256" cy="492.881" rx="62.222" ry="11.395"/>
		<ellipse style="fill:#9AB8E5;" cx="528.737" cy="492.881" rx="62.222" ry="11.395"/>
		<rect style="fill:none;" width="680" height="550"/>
		<g>
			<path style="fill:#D9E6FF;" d="M614.202,213.408c-52.728-135.562-182.778-27.008-283.91-84.903
				C257.047,86.574,156.544,20.62,77.725,144.044c-43.195,67.64-13.675,154.715,66.501,158.289
				c59.816,2.667,125.948,14.211,177.085,45.92C444.299,424.515,666.93,348.969,614.202,213.408z"/>
			
				<ellipse transform="matrix(0.2912 -0.9567 0.9567 0.2912 262.6544 508.3666)" style="fill:#D9E6FF;" cx="474.409" cy="76.925" rx="48.001" ry="51.115"/>
		</g>
		<path style="fill:#507096;" d="M561.133,431.994c36.142-138.075,78.503-92.527,60.568-67.601
			C603.766,389.32,561.133,431.994,561.133,431.994z"/>
		<path style="fill:#507096;" d="M110.555,377.527c-112.978-87.218-54.499-108.415-38.562-82.167
			C87.931,321.61,110.555,377.527,110.555,377.527z"/>
		<path style="fill:#507096;" d="M423.068,431.645c-55.417-77.897-10.336-85.385-4.818-66.181
			C423.768,384.667,423.068,431.645,423.068,431.645z"/>
		<path style="fill:#507096;" d="M223.589,427.635c-7.97-95.265,34.632-78.728,29.59-59.394
			C248.137,387.576,223.589,427.635,223.589,427.635z"/>
		<g>
			<path style="fill:#9DBEED;" d="M381.735,462.85h254.06c0,0-13.778-60.289-66.222-44.401c0,0-1.083-66.882-69.06-75.663
				c-67.977-8.781-83.977,68.77-83.977,68.77S376.564,405.028,381.735,462.85z"/>
			<g>
				<polygon style="fill:#507096;" points="403.646,429.478 402.76,429.939 419.84,462.85 420.966,462.85 				"/>
				<polygon style="fill:#507096;" points="495.375,462.85 499.735,357.729 498.735,357.688 494.374,462.85 				"/>
			</g>
			<polygon style="fill:#507096;" points="575.388,462.85 593.543,436.1 592.715,435.537 574.178,462.85 			"/>
		</g>
		<path style="fill:#507096;" d="M465.252,468.332H351.474c0,0,35.702-32.32,53.406-13.768c0,0-0.094-14.949,16.128-16.559
			c13.428-1.333,21.132,15.183,21.132,15.183S455.919,438.659,465.252,468.332z"/>
		<g>
			<path style="fill:#9DBEED;" d="M282.773,462.208H33.884c0,0-7.111-84.457,48-122.923s118.65,6.129,113.251,61.461
				c0,0,36.083-17.557,50.897,20.666C246.032,421.412,278.032,413.819,282.773,462.208z"/>
			<g>
				<polygon style="fill:#507096;" points="208.442,423.425 207.458,423.251 200.592,462.208 201.607,462.208 				"/>
				<polygon style="fill:#507096;" points="247.009,462.208 259.219,438.154 258.327,437.701 245.888,462.208 				"/>
			</g>
			<polygon style="fill:#507096;" points="96.269,365.516 95.274,365.613 104.663,462.208 105.668,462.208 			"/>
		</g>
		<path style="fill:#507096;" d="M117.884,468.332H14.329c0,0,9.983-39.834,28.325-45.081c18.342-5.246,31.231,18.913,31.231,18.913
			s23.84-7.521,26.586,11.493C100.471,453.657,117.884,451.104,117.884,468.332z"/>
		<path style="fill:#507096;" d="M588.106,469.703h78.667c0,0-9.778-28.591-26.222-25.7c-16.445,2.891-21.778,10.561-21.778,10.561
			S609.44,428.512,588.106,469.703z"/>
	</g>
</g>
<g id="OBJECTS">
	<g>
		<g>
			<path style="fill:#507096;" d="M95.394,53.699C76.574,46.753,55.686,56.38,48.74,75.201
				c-6.946,18.821,2.681,39.709,21.502,46.654c10.656,3.933,21.973,2.549,31.049-2.805l12.367,5.993l-2.703-14.294
				c2.477-3.034,4.509-6.516,5.941-10.397C123.842,81.532,114.215,60.644,95.394,53.699z"/>
			<g>
				<path style="fill:#FFFFFF;" d="M82.399,68.319c-10.393,0-12.397,8.575-12.397,8.808l6.851,3.309
					c0.513-2.004,2.144-4.8,5.499-4.8c2.097,0,3.775,1.585,3.775,3.822c0,3.309-2.657,3.449-5.499,5.266
					c-2.097,1.352-2.19,3.029-2.19,5.08v5.08h7.69v-2.61c0-1.538,0.046-2.843,1.631-3.542c4.474-1.911,7.876-4.707,7.876-9.274
					C95.635,72.886,89.39,68.319,82.399,68.319z"/>
				<path style="fill:#FFFFFF;" d="M82.259,97.494c-2.936,0-5.313,2.377-5.313,5.36c0,2.936,2.377,5.313,5.313,5.313
					c2.983,0,5.36-2.377,5.36-5.313C87.618,99.871,85.242,97.494,82.259,97.494z"/>
			</g>
		</g>
		<g>
			<path style="fill:#507096;" d="M584.606,70.385c18.821-6.946,39.708,2.681,46.654,21.502
				c6.946,18.821-2.681,39.708-21.502,46.654c-10.656,3.932-21.973,2.549-31.049-2.805l-12.367,5.993l2.703-14.294
				c-2.477-3.034-4.509-6.516-5.941-10.397C556.158,98.219,565.785,77.331,584.606,70.385z"/>
			<g>
				<path style="fill:#FFFFFF;" d="M596.762,85.005c-10.393,0-12.397,8.575-12.397,8.808l6.851,3.309
					c0.513-2.004,2.144-4.8,5.499-4.8c2.097,0,3.775,1.585,3.775,3.822c0,3.309-2.657,3.449-5.5,5.266
					c-2.097,1.352-2.19,3.029-2.19,5.08v5.08h7.69v-2.61c0-1.538,0.046-2.843,1.631-3.542c4.474-1.911,7.876-4.707,7.876-9.274
					C609.998,89.573,603.753,85.005,596.762,85.005z"/>
				<path style="fill:#FFFFFF;" d="M596.622,114.18c-2.936,0-5.313,2.377-5.313,5.359c0,2.936,2.377,5.313,5.313,5.313
					c2.983,0,5.36-2.377,5.36-5.313C601.982,116.557,599.605,114.18,596.622,114.18z"/>
			</g>
		</g>
		<g>
			<g>
				<path style="fill:#AA375D;" d="M212.601,123.165c0-2.082,17.906-78.703,110.767-78.703c62.463,0,118.263,40.809,118.263,99.524
					c0,40.809-30.399,65.794-70.374,82.867c-14.159,6.246-14.575,17.906-14.575,31.647v23.32h-68.709v-45.39
					c0-18.322,0.833-33.314,19.572-45.389c25.401-16.24,49.137-17.489,49.137-47.055c0-19.988-14.991-34.146-33.73-34.146
					c-29.981,0-44.556,24.985-49.137,42.891L212.601,123.165z M370.007,353.027c0,26.235-21.237,47.471-47.887,47.471
					c-26.235,0-47.472-21.237-47.472-47.471c0-26.651,21.237-47.888,47.472-47.888C348.77,305.139,370.007,326.377,370.007,353.027z
					"/>
			</g>
			<rect x="322.119" y="305.139" style="fill:#AA375D;" width="24" height="95.359"/>
			<g>
				<path style="fill:#FF5050;" d="M236.601,123.165c0-2.082,17.906-78.703,110.767-78.703c62.463,0,118.263,40.809,118.263,99.524
					c0,40.809-30.399,65.794-70.375,82.867c-14.159,6.246-14.575,17.906-14.575,31.647v23.32h-68.709v-45.39
					c0-18.322,0.833-33.314,19.572-45.389c25.401-16.24,49.137-17.489,49.137-47.055c0-19.988-14.991-34.146-33.73-34.146
					c-29.981,0-44.556,24.985-49.137,42.891L236.601,123.165z M394.006,353.027c0,26.235-21.237,47.471-47.887,47.471
					c-26.235,0-47.472-21.237-47.472-47.471c0-26.651,21.237-47.888,47.472-47.888C372.77,305.139,394.006,326.377,394.006,353.027z
					"/>
			</g>
			<polygon style="fill:#873051;" points="212.601,123.165 236.601,123.165 297.814,152.731 273.815,152.731 			"/>
		</g>
		<g>
			<g>
				<path style="fill:#3A9B9B;" d="M136.307,179.666c0,0-16.195,8.006-20.492,30.228l-0.556-0.753
					c-3.547-4.803-10.417-5.6-14.97-1.739l-1.17,0.993c-4.001,3.394-4.82,9.245-1.9,13.604c2.692,4.018,5.933,8.823,8.374,12.34
					c5.037,7.259,19.852,9.778,29.333-5.481C144.407,213.597,136.307,179.666,136.307,179.666z"/>
				<path style="fill:#6BDDBC;" d="M112.996,223.107c-3.735,3.493-9.594,3.297-13.087-0.437c-3.493-3.735-3.297-9.594,0.437-13.087
					c3.735-3.493,9.594-3.297,13.087,0.437C116.927,213.755,116.731,219.614,112.996,223.107z"/>
				<g>
					<path style="fill:#A56F62;" d="M100.976,219.583l-18.695-31.384c-1.203-2.02-0.541-4.633,1.479-5.837
						c1.868-1.113,4.242-0.63,5.541,1.046l22.413,28.846c2.207,2.84,1.693,6.932-1.147,9.138c-2.84,2.207-6.932,1.693-9.138-1.147
						C101.27,220.042,101.107,219.799,100.976,219.583z"/>
					<g>
						<path style="fill:#A56F62;" d="M91.127,182.314c1.854,2.963-4.6,9.297-8.81,8.824c-3.438-0.386-8.095-1.119-13.067-0.662
							c-1.581,0.145-2.688-1.527-1.963-2.939c1.34-2.61,3.662-5.885,7.133-6.719c5.995-1.44,9.838,0.587,9.838,0.587
							s-2.663-5.497,1.733-7.565l1.071,3.254C87.06,177.094,90.713,178.827,91.127,182.314z"/>
						<path style="fill:#8C5C53;" d="M82.818,182.464c0,0-3.362,1.336-4.557,5.582C78.261,188.047,76.759,183.136,82.818,182.464z"
							/>
						<g>
							<path style="fill:#8C5C53;" d="M68.46,185.53c0.289-0.433,0.606-0.861,0.946-1.277c6.23-1.43,9.784,0.604,9.945,0.7
								l-0.509,0.86C78.802,185.791,75.005,183.648,68.46,185.53z"/>
							<path style="fill:#8C5C53;" d="M71.991,181.878c5.55-0.923,8.871,1.093,9.032,1.195l-0.534,0.846
								c-0.04-0.026-3.877-2.372-10.189-0.656C70.816,182.748,71.377,182.275,71.991,181.878z"/>
							<path style="fill:#8C5C53;" d="M67.271,187.579c4.661-1.91,10.905-1.039,11.189-0.997l-0.145,0.99
								c-0.07-0.01-6.812-0.93-11.223,1.177C67.037,188.367,67.082,187.966,67.271,187.579z"/>
						</g>
					</g>
				</g>
			</g>
			<g>
				<path style="fill:#3A9B9B;" d="M189.475,179.666c0,0,16.195,8.006,20.492,30.228l0.556-0.753
					c3.547-4.803,10.417-5.6,14.97-1.739l1.17,0.993c4.001,3.394,4.82,9.245,1.9,13.604c-2.692,4.018-5.933,8.823-8.374,12.34
					c-5.037,7.259-19.852,9.778-29.333-5.481C181.374,213.597,189.475,179.666,189.475,179.666z"/>
				<path style="fill:#6BDDBC;" d="M212.786,223.107c3.735,3.493,9.594,3.297,13.087-0.437c3.493-3.735,3.297-9.594-0.437-13.087
					c-3.735-3.493-9.594-3.297-13.087,0.437C208.855,213.755,209.051,219.614,212.786,223.107z"/>
				<g>
					<path style="fill:#A56F62;" d="M224.806,219.583l18.695-31.384c1.204-2.02,0.541-4.633-1.479-5.837
						c-1.868-1.113-4.243-0.63-5.541,1.046l-22.413,28.846c-2.207,2.84-1.693,6.932,1.147,9.138c2.84,2.207,6.931,1.693,9.138-1.147
						C224.512,220.042,224.675,219.799,224.806,219.583z"/>
					<g>
						<path style="fill:#A56F62;" d="M234.655,182.314c-1.854,2.963,4.6,9.297,8.811,8.824c3.438-0.386,8.094-1.119,13.067-0.662
							c1.581,0.145,2.688-1.527,1.963-2.939c-1.34-2.61-3.662-5.885-7.133-6.719c-5.995-1.44-9.838,0.587-9.838,0.587
							s2.663-5.497-1.733-7.565l-1.071,3.254C238.721,177.094,235.068,178.827,234.655,182.314z"/>
						<path style="fill:#8C5C53;" d="M242.964,182.464c0,0,3.362,1.336,4.557,5.582
							C247.521,188.047,249.023,183.136,242.964,182.464z"/>
						<g>
							<path style="fill:#8C5C53;" d="M257.322,185.53c-0.289-0.433-0.605-0.861-0.946-1.277c-6.23-1.43-9.784,0.604-9.945,0.7
								l0.51,0.86C246.98,185.791,250.777,183.648,257.322,185.53z"/>
							<path style="fill:#8C5C53;" d="M253.791,181.878c-5.55-0.923-8.871,1.093-9.032,1.195l0.534,0.846
								c0.04-0.026,3.877-2.372,10.189-0.656C254.966,182.748,254.404,182.275,253.791,181.878z"/>
							<path style="fill:#8C5C53;" d="M258.511,187.579c-4.661-1.91-10.905-1.039-11.189-0.997l0.145,0.99
								c0.07-0.01,6.812-0.93,11.223,1.177C258.745,188.367,258.699,187.966,258.511,187.579z"/>
						</g>
					</g>
				</g>
			</g>
			<g>
				<path style="fill:#3E3D5E;" d="M167.716,256.872h-10.048c-11.053,0-20.096,9.043-20.096,20.096l0,0
					c0,11.053,9.043,20.096,20.096,20.096h10.048c11.053,0,20.096-9.043,20.096-20.096l0,0
					C187.812,265.915,178.769,256.872,167.716,256.872z"/>
				<g>
					<g>
						<path style="fill:#4A94FF;" d="M167.076,477.04c0,0-3.336,2.984,0,17.907c0,0,32.654,5.618,53.72,0
							c0,0,1.843-14.22-15.8-16.151C187.353,476.864,167.076,477.04,167.076,477.04z"/>
						<path style="fill:#4078BC;" d="M167.076,477.04c0,0,17.15-0.147,33.63,1.331c-20.133,13.546-30.62,5.317-34.537,0.495
							C166.586,477.483,167.076,477.04,167.076,477.04z"/>
						<path style="fill:none;stroke:#FFFFFF;stroke-width:3;stroke-linecap:round;stroke-linejoin:round;stroke-miterlimit:10;" d="
							M220.796,494.947c0,0-23.349,5.267-53.72,0"/>
					</g>
					<path style="fill:#3E3D5E;" d="M193.837,482.296"/>
					<path style="fill:none;stroke:#3E3D5E;stroke-width:22;stroke-miterlimit:10;" d="M174.103,286.036
						c0,0,13.778,92.444,4.296,193.185"/>
				</g>
				<g>
					<g>
						<path style="fill:#83C1FF;" d="M135.743,480.818c0,0-3.336,2.984,0,17.907c0,0,32.653,5.618,53.72,0
							c0,0,1.843-14.22-15.8-16.151C156.02,480.642,135.743,480.818,135.743,480.818z"/>
						<path style="fill:#4A94FF;" d="M135.743,480.818c0,0,17.15-0.147,33.629,1.331c-20.133,13.546-30.62,5.317-34.537,0.495
							C135.252,481.26,135.743,480.818,135.743,480.818z"/>
						<path style="fill:none;stroke:#FFFFFF;stroke-width:3;stroke-linecap:round;stroke-linejoin:round;stroke-miterlimit:10;" d="
							M189.463,498.725c0,0-23.349,5.267-53.72,0"/>
					</g>
					<path style="fill:#3E3D5E;" d="M162.504,486.073"/>
					<path style="fill:none;stroke:#3E3D5E;stroke-width:22;stroke-miterlimit:10;" d="M152.695,287.518
						c0,0,3.852,94.741-5.63,195.481"/>
				</g>
			</g>
			<g>
				<path style="fill:#F5FAFF;" d="M138.294,271.978c6.929,2.672,19.549,6.343,34.772,3.91c5.429-0.868,10.123-2.341,13.993-3.91
					c0-27.714,0-55.427,0-83.141c0-7.555-6.124-13.679-13.679-13.679h-21.406c-7.555,0-13.679,6.124-13.679,13.679V271.978z"/>
				<g>
					<path style="fill:#D9E6FF;" d="M171.16,175.158h2.219c7.555,0,13.679,6.124,13.679,13.679c0,27.714,0,55.427,0,83.141
						c-3.87,1.569-8.564,3.043-13.993,3.91c-0.604,0.096-1.197,0.168-1.792,0.245L171.16,175.158z"/>
					<path style="fill:#D9E6FF;" d="M151.973,175.158h4.083l-1.739,100.939c-6.709-0.895-12.225-2.654-16.023-4.119v-83.141
						C138.294,181.282,144.418,175.158,151.973,175.158z"/>
				</g>
				<path style="fill:#7E92A8;" d="M163.29,186.734c-9.289,0-16.877-4.05-17.335-9.12c0.186-0.116,0.371-0.233,0.562-0.341
					c0.141,4.902,7.605,8.868,16.774,8.868c8.718,0,15.899-3.585,16.706-8.151c0.176,0.12,0.341,0.255,0.512,0.383
					C179.402,183.081,172.111,186.734,163.29,186.734z"/>
				<path style="fill:#A56F62;" d="M150.733,176.354c0,3.727,5.691,6.748,12.711,6.748c7.02,0,12.711-3.021,12.711-6.748
					c0-3.727-5.691-4.641-12.711-4.641C156.424,171.713,150.733,172.627,150.733,176.354z"/>
			</g>
			<g>
				<g>
					<path style="fill:#6BDDBC;" d="M172.732,172.555l17,7.111l4.239,90.205c0.169,3.595-1.852,6.936-5.115,8.455h0
						c-5.666,2.637-12.209-1.25-12.592-7.488c-1.224-19.935-3.421-56.126-3.421-59.172
						C172.843,207.444,172.732,172.555,172.732,172.555z"/>
					<polygon style="fill:#3A9B9B;" points="170.843,168.184 174.473,169.073 182.399,183.999 174.547,182.332 172.802,185.735 
						170.788,172.166 					"/>
					<path style="fill:#6BDDBC;" d="M153.307,172.555l-17,7.111l-4.239,90.205c-0.169,3.595,1.852,6.936,5.115,8.455l0,0
						c5.666,2.637,12.209-1.25,12.592-7.488c1.224-19.935,3.421-56.126,3.421-59.172
						C153.195,207.444,153.307,172.555,153.307,172.555z"/>
					<polygon style="fill:#3A9B9B;" points="155.195,168.184 151.566,169.073 143.64,183.999 151.492,182.332 153.237,185.735 
						155.251,172.166 					"/>
				</g>
			</g>
			<g>
				<g>
					<g>
						<path style="fill:#323244;" d="M132.009,132.855c0,0.928-0.946,1.9-0.845,2.805c0.102,0.919,1.239,1.661,1.439,2.551
							c0.202,0.899-0.507,2.056-0.21,2.922c0.299,0.87,1.57,1.346,1.96,2.178c0.389,0.83-0.058,2.111,0.417,2.899
							c0.473,0.784,1.815,0.988,2.367,1.726c0.548,0.732,0.365,2.077,0.987,2.758c0.616,0.675,1.972,0.617,2.655,1.238
							c0.676,0.614,0.745,1.97,1.481,2.527c0.728,0.551,2.052,0.251,2.834,0.742c0.773,0.485,1.076,1.808,1.898,2.232
							c0.811,0.418,2.065-0.102,2.919,0.252c0.842,0.349,1.36,1.604,2.241,1.888c0.867,0.279,2.021-0.436,2.922-0.224
							c0.887,0.209,1.597,1.366,2.513,1.507c0.9,0.139,1.927-0.748,2.852-0.678c0.907,0.069,1.788,1.103,2.716,1.103
							c0.928,0,1.808-1.034,2.715-1.103c0.924-0.07,1.951,0.817,2.851,0.678c0.915-0.141,1.626-1.298,2.513-1.507
							c0.901-0.213,2.055,0.503,2.922,0.224c0.881-0.284,1.399-1.539,2.242-1.888c0.855-0.354,2.109,0.165,2.92-0.253
							c0.822-0.424,1.125-1.747,1.898-2.232c0.783-0.492,2.107-0.192,2.834-0.743c0.737-0.558,0.806-1.913,1.481-2.528
							c0.683-0.621,2.039-0.563,2.655-1.238c0.622-0.682,0.439-2.026,0.987-2.758c0.552-0.738,1.895-0.942,2.367-1.726
							c0.475-0.788,0.027-2.068,0.416-2.899c0.39-0.831,1.661-1.308,1.959-2.177c0.298-0.866-0.412-2.022-0.21-2.921
							c0.2-0.891,1.337-1.632,1.439-2.551c0.1-0.905-0.845-1.877-0.845-2.805s0.946-1.9,0.845-2.805
							c-0.102-0.919-1.239-1.661-1.439-2.552c-0.202-0.899,0.507-2.056,0.21-2.922c-0.299-0.869-1.57-1.346-1.96-2.178
							c-0.389-0.831,0.058-2.111-0.417-2.899c-0.473-0.784-1.815-0.988-2.367-1.726c-0.548-0.732-0.365-2.076-0.987-2.758
							c-0.616-0.675-1.972-0.617-2.655-1.238c-0.675-0.614-0.744-1.97-1.481-2.527c-0.728-0.551-2.052-0.251-2.834-0.742
							c-0.772-0.485-1.076-1.808-1.898-2.231c-0.811-0.418-2.065,0.102-2.919-0.252c-0.842-0.349-1.36-1.604-2.241-1.888
							c-0.867-0.279-2.021,0.436-2.922,0.224c-0.886-0.209-1.597-1.366-2.513-1.507c-0.9-0.139-1.927,0.748-2.852,0.678
							c-0.908-0.069-1.788-1.103-2.716-1.103c-0.928,0-1.808,1.034-2.715,1.103c-0.924,0.07-1.951-0.817-2.851-0.678
							c-0.915,0.141-1.626,1.298-2.513,1.507c-0.901,0.213-2.055-0.503-2.922-0.224c-0.881,0.284-1.399,1.539-2.242,1.888
							c-0.855,0.354-2.109-0.165-2.92,0.253c-0.822,0.424-1.126,1.747-1.898,2.232c-0.783,0.492-2.107,0.192-2.834,0.742
							c-0.737,0.558-0.806,1.913-1.481,2.528c-0.683,0.621-2.04,0.564-2.655,1.238c-0.622,0.682-0.439,2.026-0.987,2.758
							c-0.552,0.738-1.895,0.942-2.367,1.726c-0.475,0.788-0.027,2.068-0.416,2.899c-0.389,0.831-1.661,1.308-1.959,2.177
							c-0.298,0.866,0.412,2.022,0.21,2.921c-0.2,0.891-1.337,1.632-1.439,2.551C131.063,130.955,132.009,131.927,132.009,132.855z"
							/>
					</g>
					<g>
						<g>
							<g>
								<path style="fill:#A56F62;" d="M171.321,172.85c0-22.223-3.596-10.674-8.032-10.674c-4.436,0-8.032-10.116-8.032,10.674
									c0,7.788,3.596,7.116,8.032,7.116C167.725,179.965,171.321,180.638,171.321,172.85z"/>
								<path style="fill:#8C5C53;" d="M155.424,166.358c0.757-11.897,3.99-4.182,7.865-4.182c4.295,0,7.803-10.827,8.021,8.66
									C164.447,173.543,159.122,170.4,155.424,166.358z"/>
							</g>
							<g>
								<path style="fill:#A56F62;" d="M166.615,123.744h-8.033c-6.268,0-11.396,5.128-11.396,11.397v16.591
									c0,8.753,7.161,15.914,15.914,15.914l0,0c8.753,0,15.914-7.162,15.914-15.914v-15.588
									C179.014,129.324,173.434,123.744,166.615,123.744z"/>
								<path style="fill:#8C5C53;" d="M147.185,135.141c0-6.268,5.128-11.397,11.396-11.397h8.033c2.523,0,4.875,0.768,6.839,2.076
									c0.02,0.101,0.053,0.196,0.067,0.299c0.085-0.026,0.175-0.042,0.262-0.065c3.157,2.253,5.232,5.937,5.232,10.089v5.075
									c-2.417-0.133-4.342-2.117-4.342-4.567c0-0.559,0.115-1.088,0.298-1.584c-0.032,0.001-0.062,0.009-0.094,0.009
									c-2.335,0-4.242-1.749-4.533-4.005c-0.431,0.134-0.88,0.227-1.355,0.227c-1.516,0-2.849-0.744-3.686-1.876
									c-0.779,0.609-1.748,0.988-2.814,0.988c-1.122,0-2.136-0.418-2.933-1.086c-0.841,0.933-2.046,1.53-3.4,1.53
									c-0.211,0-0.412-0.035-0.616-0.062c-0.428,1.254-1.366,2.268-2.583,2.77c-0.223,1.472-1.139,2.702-2.411,3.366
									c0.119,0.408,0.203,0.831,0.203,1.278c0,2.18-1.523,3.997-3.561,4.466V135.141z"/>
								<path style="fill:#323244;" d="M144.663,137.577c-0.7-0.549-1.157-1.393-1.157-2.351c0-1.518,1.131-2.759,2.594-2.959
									c-0.6-0.549-0.983-1.33-0.983-2.208c0-1.641,1.319-2.97,2.953-2.995c-0.042-0.199-0.064-0.405-0.064-0.616
									c0-1.657,1.343-3,3-3c0.289,0,0.563,0.054,0.827,0.13c0.392-1.201,1.508-2.075,2.839-2.075c0.818,0,1.557,0.329,2.098,0.86
									c0.524-0.877,1.472-1.471,2.568-1.471c0.995,0,1.871,0.49,2.417,1.237c0.546-0.746,1.421-1.237,2.417-1.237
									c1.16,0,2.154,0.665,2.653,1.628c0.55-0.619,1.342-1.017,2.235-1.017c1.526,0,2.772,1.143,2.961,2.617
									c0.514-0.415,1.16-0.673,1.872-0.673c1.657,0,3,1.343,3,3c0,0.369-0.076,0.718-0.197,1.044
									c0.449-0.269,0.969-0.433,1.531-0.433c1.657,0,3,1.343,3,3c0,0.888-0.394,1.678-1.007,2.227
									c1.367,0.279,2.396,1.489,2.396,2.939c0,0.951-0.451,1.788-1.14,2.337c1.092,0.448,1.863,1.52,1.863,2.774
									c0,1.657-1.343,3-3,3c-1.657,0-3-1.343-3-3c0-0.951,0.451-1.788,1.14-2.337c-1.092-0.448-1.863-1.52-1.863-2.774
									c0-0.889,0.394-1.678,1.008-2.228c-1.368-0.279-2.396-1.489-2.396-2.939c0-0.369,0.076-0.718,0.197-1.044
									c-0.449,0.269-0.969,0.433-1.531,0.433c-1.526,0-2.772-1.143-2.961-2.617c-0.514,0.414-1.16,0.673-1.872,0.673
									c-1.16,0-2.154-0.665-2.653-1.628c-0.55,0.619-1.342,1.017-2.235,1.017c-0.995,0-1.871-0.49-2.417-1.237
									c-0.546,0.746-1.421,1.237-2.417,1.237c-0.818,0-1.557-0.329-2.098-0.86c-0.523,0.877-1.472,1.471-2.568,1.471
									c-0.289,0-0.563-0.054-0.827-0.13c-0.387,1.187-1.482,2.049-2.793,2.07c0.042,0.199,0.064,0.405,0.064,0.616
									c0,1.518-1.131,2.759-2.594,2.959c0.6,0.549,0.983,1.33,0.983,2.208c0,1.239-0.752,2.302-1.824,2.76
									c0.7,0.549,1.157,1.393,1.157,2.351c0,1.657-1.343,3-3,3c-1.657,0-3-1.343-3-3
									C142.839,139.097,143.59,138.034,144.663,137.577z"/>
								<path style="fill:#3E3D5E;" d="M169.76,140.298l-2.633-1.01c-0.814-0.313-1.225-1.235-0.913-2.049l0,0
									c0.313-0.814,1.235-1.225,2.049-0.913l2.633,1.01c0.815,0.313,1.225,1.234,0.913,2.049l0,0
									C171.497,140.199,170.575,140.61,169.76,140.298z"/>
								<path style="fill:#3E3D5E;" d="M157.283,139.478l-2.539,1.228c-0.785,0.38-1.739,0.048-2.119-0.737l0,0
									c-0.38-0.785-0.048-1.739,0.737-2.119l2.538-1.228c0.785-0.38,1.739-0.048,2.119,0.737l0,0
									C158.4,138.145,158.069,139.098,157.283,139.478z"/>
								<path style="fill:#8C5C53;" d="M160.84,149.906c0,0,3.655,0.669,3.672,1.354c0.016,0.686-1.762,1.012-2.252,0.718
									C161.77,151.684,160.84,149.906,160.84,149.906z"/>
								<g>
									<path style="fill:#34344F;" d="M163.79,141.968c-0.391,0.816-0.77,1.641-1.111,2.48c-0.349,0.836-0.701,1.673-1.021,2.52
										c-0.323,0.846-0.646,1.693-0.937,2.549l-0.055,0.16c-0.007-0.012-0.031,0.145,0.004,0.25
										c0.031,0.091,0.052,0.101,0.081,0.153c0.106,0.141,0.197,0.212,0.292,0.294c0.186,0.157,0.385,0.275,0.58,0.398
										c0.398,0.232,0.808,0.437,1.249,0.586c-0.311-0.346-0.645-0.652-0.967-0.961c-0.163-0.15-0.321-0.308-0.468-0.454
										c-0.068-0.072-0.142-0.157-0.163-0.202c0.004,0.003-0.015-0.032,0.003,0.005c0.029,0.05-0.017,0.15,0.008,0.086
										l0.061-0.157c0.321-0.84,0.611-1.687,0.901-2.536c0.292-0.848,0.553-1.706,0.817-2.565
										C163.334,143.717,163.568,142.847,163.79,141.968z"/>
									<g>
										<path style="fill:#323244;" d="M170.813,143.507c0,0.966-0.784,1.75-1.75,1.75c-0.967,0-1.75-0.784-1.75-1.75
											c0-0.967,0.784-1.75,1.75-1.75C170.029,141.756,170.813,142.54,170.813,143.507z"/>
									</g>
									<g>
										<path style="fill:#323244;" d="M158.346,143.507c0,0.966-0.784,1.75-1.75,1.75c-0.967,0-1.75-0.784-1.75-1.75
											c0-0.967,0.784-1.75,1.75-1.75C157.562,141.756,158.346,142.54,158.346,143.507z"/>
									</g>
								</g>
								<g>
									<path style="fill:#A56F62;" d="M177.258,144.82c-0.484,2.986,0.741,5.713,2.736,6.092c1.995,0.379,4.005-1.735,4.489-4.721
										c0.484-2.986-0.741-5.713-2.736-6.092C179.752,139.72,177.742,141.834,177.258,144.82z"/>
									<path style="fill:#8C5C53;" d="M179.368,145.12c-0.305-0.058-0.61-0.024-0.903,0.081c0.007-0.05,0.011-0.099,0.019-0.149
										c0.32-1.972,1.648-3.369,2.966-3.119c1.318,0.25,2.128,2.052,1.808,4.024c-0.246,1.516-1.088,2.689-2.063,3.038
										C181.451,147.083,180.652,145.364,179.368,145.12z"/>
								</g>
								<g>
									<path style="fill:#A56F62;" d="M149.372,144.82c0.484,2.986-0.741,5.713-2.736,6.092c-1.995,0.379-4.005-1.735-4.489-4.721
										c-0.484-2.986,0.741-5.713,2.736-6.092C146.878,139.72,148.888,141.834,149.372,144.82z"/>
									<path style="fill:#8C5C53;" d="M147.262,145.12c0.305-0.058,0.61-0.024,0.903,0.081c-0.007-0.05-0.011-0.099-0.019-0.149
										c-0.32-1.972-1.648-3.369-2.966-3.119c-1.318,0.25-2.128,2.052-1.808,4.024c0.246,1.516,1.088,2.689,2.063,3.038
										C145.179,147.083,145.977,145.364,147.262,145.12z"/>
								</g>
								<path style="fill:#8C5C53;" d="M155.46,152.244c0,0,0.077-1.269,1.332-0.746l-0.634,0.355
									c0.853,0.915,4.482,4.128,12.292,2.595c0,0-2.528,1.667-7.333,0.611c-3.766-0.827-4.799-2.469-5.071-3.142L155.46,152.244z"
									/>
							</g>
						</g>
						<g>
							<path style="fill:none;stroke:#FF5050;stroke-miterlimit:10;" d="M163.746,143.503c0,3.467,2.363,6.278,5.278,6.278
								c2.915,0,5.278-2.811,5.278-6.278c0-3.467-2.363-6.278-5.278-6.278C166.109,137.225,163.746,140.036,163.746,143.503z"/>
							<path style="fill:none;stroke:#FF5050;stroke-miterlimit:10;" d="M151.302,143.503c0,3.467,2.363,6.278,5.278,6.278
								c2.915,0,5.278-2.811,5.278-6.278c0-3.467-2.363-6.278-5.278-6.278C153.665,137.225,151.302,140.036,151.302,143.503z"/>
							<line style="fill:none;stroke:#FF5050;stroke-miterlimit:10;" x1="151.7" y1="141.253" x2="147.783" y2="139.864"/>
							<line style="fill:none;stroke:#FF5050;stroke-miterlimit:10;" x1="173.95" y1="141.253" x2="178.746" y2="139.799"/>
							<line style="fill:none;stroke:#FF5050;stroke-miterlimit:10;" x1="161.422" y1="140.864" x2="164.172" y2="140.864"/>
						</g>
					</g>
				</g>
			</g>
		</g>
		<g>
			<g>
				<g>
					<path style="fill:#FFB692;" d="M501.593,171.372l-17.299,34.078c-1.626,3.204-5.542,4.483-8.746,2.856
						c-3.204-1.626-4.483-5.542-2.856-8.746c0.083-0.164,0.179-0.333,0.274-0.486l20.156-32.47c1.417-2.283,4.417-2.985,6.699-1.568
						C501.978,166.376,502.714,169.147,501.593,171.372z"/>
				</g>
				<path style="fill:#FFB692;" d="M512.771,217.9l-35.866-9.049c-3.647-0.92-5.858-4.623-4.938-8.27
					c0.92-3.647,4.623-5.858,8.27-4.938c0.028,0.007,0.089,0.023,0.117,0.031l35.7,9.684c3.455,0.937,5.496,4.498,4.559,7.953
					C519.687,216.727,516.189,218.76,512.771,217.9z"/>
				<path style="fill:#D88D87;" d="M516.054,205.358l-16.498-4.475l-5.857,12.205l19.072,4.812c3.418,0.86,6.915-1.172,7.842-4.588
					C521.55,209.856,519.509,206.295,516.054,205.358z"/>
				<path style="fill:#6A3999;" d="M496.521,217.355l5.068-18.636l13.723,3.732c5.146,1.4,8.183,6.706,6.784,11.852l0,0
					c-1.4,5.146-6.706,8.183-11.852,6.784L496.521,217.355z"/>
				<g>
					<path style="fill:#FFB692;" d="M511.279,155.193h-5.993l-9.37,6.617c0,0-4.695,9.435-4.917,11.352
						c-0.137,1.188,3.493,2.141,6.274,2.694c1.833,0.364,3.696-0.455,4.674-2.047l1.199-1.951c0,0,6.328-5.134,7.249-6.811
						c0.92-1.677-3.279-6.458-3.279-6.458l4.372-1.189l2.544,0.42c0.592,0.098,1.114-0.395,1.05-0.992v0
						c-0.04-0.372-0.303-0.682-0.664-0.78L511.279,155.193z"/>
					<path style="fill:#D88D87;" d="M508.324,167.352c-0.958-1.74-2.765-5.148-3.384-7.173l4.398,6.166
						C509.036,166.661,508.693,167.001,508.324,167.352z"/>
					<path style="fill:#D88D87;" d="M505.792,169.633c-2.675-4.666-2.685-4.819-3.445-7.307l4.531,6.353
						C506.512,169.006,506.145,169.328,505.792,169.633z"/>
					<path style="fill:#D88D87;" d="M498.86,166.853c0,0,0.719,1.793,2.876,2.378C501.737,169.23,498.659,169.47,498.86,166.853z"/>
					<path style="fill:#D88D87;" d="M499.594,168.478c-0.877-0.676-1.352,0.288-1.352,0.288L499.594,168.478z"/>
					<path style="fill:#D88D87;" d="M503.041,172.028c0,0-4.325-0.43-4.641-1.638s-0.158-1.625-0.158-1.625
						s-0.791,1.539-0.417,2.287c0.374,0.748,4.689,1.835,4.689,1.835L503.041,172.028z"/>
				</g>
			</g>
			<g>
				<g>
					<path style="fill:#FFB692;" d="M511.782,290.102c-0.407,1.079-0.725,2.056-1.071,3.053c-0.351,1.001-0.639,1.997-0.945,2.986
						c-0.63,1.983-1.17,3.984-1.691,5.974c-1.098,3.987-1.955,8-2.788,12.025c-0.801,4.026-1.472,8.07-2.105,12.122
						c-0.546,4.058-1.093,8.121-1.508,12.195c-0.338,4.079-0.761,8.155-0.891,12.25c-0.067,4.098,0.107,8.207,0.408,12.31
						c0.118,2.05,0.384,4.104,0.58,6.151c0.226,2.049,0.374,4.092,0.565,6.134c0.269,4.081,0.566,8.156,0.643,12.227
						c0.132,8.133-0.884,16.317-0.992,24.517c0.017,2.046,0.137,4.091,0.311,6.131l0.251,3.06l0.324,3.054
						c0.24,2.034,0.485,4.066,0.798,6.091l1.109,6.06c0.784,4.031,1.365,8.075,1.964,12.118l2.096,12.094l1.012,6.049l1.244,6.016
						c0.425,2.003,0.812,4.013,1.198,6.025c0.391,2.01,0.782,4.02,1.139,6.039l16.57-3.8c-0.441-1.906-0.847-3.821-1.254-5.736
						c-0.411-1.914-0.823-3.828-1.195-5.75l-1.149-5.759c-0.338-1.93-0.594-3.876-0.867-5.818l-1.576-11.655
						c-0.38-3.906-0.615-7.833-0.736-11.76l-0.217-5.883c-0.008-1.967-0.024-3.932-0.079-5.893
						c-0.105-3.922-0.38-7.824-0.788-11.727c-0.315-3.91-0.93-7.812-1.455-11.731c-0.586-3.915-0.791-7.856-0.739-11.794
						c-0.064-7.88,1.365-15.743,2.672-23.535c0.729-3.897,1.33-7.786,1.69-11.688c0.456-3.894,0.69-7.802,0.971-11.709
						c0.107-1.957,0.316-3.902,0.459-5.855l0.413-5.863c0.302-3.903,0.596-7.812,0.847-11.727c0.305-3.904,0.538-7.827,0.782-11.738
						c0.094-1.968,0.26-3.909,0.346-5.867l0.156-2.92c0.039-0.968,0.096-1.959,0.109-2.837L511.782,290.102z"/>
					<path style="fill:#F5FAFF;" d="M531.938,482.438c0,0-4.778-19.444-7.222-40.667c0,0-13.667,1.778-20,0.778l7.555,41.889
						L531.938,482.438z"/>
					<g>
						<path style="fill:#F29538;" d="M533.389,477.367c0,0,3.336,2.984,0,17.907c0,0-22.653,5.618-43.72,0
							c0,0-2.843-14.22,14.8-16.151C522.112,477.192,533.389,477.367,533.389,477.367z"/>
						<path style="fill:none;stroke:#FFFFFF;stroke-width:3;stroke-linecap:round;stroke-linejoin:round;stroke-miterlimit:10;" d="
							M489.669,495.274c0,0,13.349,5.267,43.72,0"/>
					</g>
					<path style="fill:#D88D87;" d="M522.811,362.853c-0.065,0.362-0.126,0.725-0.194,1.087c-1.307,7.792-2.737,15.655-2.672,23.535
						c-0.004,0.323,0.004,0.645,0.004,0.968c-6.25-1.764-12.061-4.387-17.238-7.302c-0.114-1.945-0.248-3.892-0.376-5.84
						c-0.191-2.042-0.338-4.086-0.565-6.134c-0.195-2.047-0.461-4.102-0.58-6.151c-0.009-0.122-0.015-0.244-0.024-0.366
						L522.811,362.853z"/>
				</g>
				<g>
					<path style="fill:#FFB692;" d="M541.227,294.102c-0.407,1.079-0.725,2.056-1.071,3.053c-0.351,1.001-0.639,1.997-0.945,2.986
						c-0.63,1.983-1.17,3.984-1.691,5.974c-1.098,3.987-1.955,8-2.788,12.025c-0.801,4.026-1.472,8.07-2.106,12.122
						c-0.546,4.058-1.093,8.121-1.508,12.195c-0.338,4.079-0.761,8.155-0.891,12.25c-0.067,4.098,0.107,8.207,0.408,12.31
						c0.118,2.049,0.384,4.104,0.58,6.151c0.226,2.049,0.374,4.092,0.565,6.134c0.269,4.081,0.566,8.155,0.643,12.227
						c0.132,8.133-0.884,16.317-0.992,24.517c0.017,2.046,0.137,4.091,0.311,6.131l0.251,3.06l0.323,3.054
						c0.24,2.034,0.485,4.066,0.798,6.091l1.109,6.06c0.784,4.031,1.365,8.075,1.964,12.118l2.096,12.094l1.012,6.049l1.244,6.016
						c0.425,2.003,0.812,4.013,1.198,6.025c0.391,2.01,0.782,4.02,1.139,6.039l16.57-3.8c-0.441-1.906-0.847-3.821-1.254-5.736
						c-0.411-1.914-0.823-3.828-1.195-5.75l-1.149-5.759c-0.338-1.93-0.594-3.876-0.867-5.818l-1.576-11.655
						c-0.38-3.906-0.615-7.833-0.736-11.76l-0.217-5.883c-0.008-1.967-0.024-3.932-0.079-5.892
						c-0.105-3.922-0.38-7.824-0.788-11.727c-0.315-3.91-0.93-7.812-1.455-11.731c-0.586-3.915-0.79-7.856-0.739-11.794
						c-0.064-7.88,1.365-15.743,2.672-23.535c0.729-3.897,1.33-7.786,1.69-11.687c0.456-3.894,0.69-7.802,0.971-11.709
						c0.106-1.957,0.316-3.902,0.459-5.855l0.413-5.863c0.302-3.903,0.597-7.812,0.847-11.727c0.305-3.904,0.538-7.827,0.782-11.738
						c0.094-1.968,0.26-3.909,0.346-5.867l0.156-2.92c0.039-0.968,0.096-1.959,0.11-2.837L541.227,294.102z"/>
					<path style="fill:#D88D87;" d="M552.881,363.136c-0.249,1.601-0.519,3.202-0.819,4.805c-1.164,6.94-2.419,13.937-2.635,20.951
						c-5.812,1.606-11.526,2.082-17.033,1.729c-0.1-3.769-0.366-7.541-0.615-11.319c-0.191-2.042-0.338-4.086-0.565-6.134
						c-0.196-2.047-0.461-4.102-0.58-6.151c-0.1-1.363-0.179-2.727-0.247-4.092L552.881,363.136z"/>
					<path style="fill:#F5FAFF;" d="M561.382,486.438c0,0-4.778-19.444-7.222-40.667c0,0-13.667,1.778-20,0.778l7.556,41.889
						L561.382,486.438z"/>
					<g>
						<path style="fill:#F4C85B;" d="M562.833,481.367c0,0,3.336,2.984,0,17.907c0,0-22.654,5.618-43.72,0
							c0,0-2.843-14.22,14.8-16.151C551.557,481.192,562.833,481.367,562.833,481.367z"/>
						<path style="fill:none;stroke:#FFFFFF;stroke-width:3;stroke-linecap:round;stroke-linejoin:round;stroke-miterlimit:10;" d="
							M519.113,499.274c0,0,13.349,5.267,43.72,0"/>
					</g>
				</g>
				<g>
					<path style="fill:#3E3D5E;" d="M559.003,281.003c0,0,4.045,21.879-3.733,94.768c0,0-32.667,6-56.222,0
						c0,0-1.62-46.647,11.19-94.768C510.239,281.003,558.736,281.003,559.003,281.003z"/>
					<path style="fill:#507096;" d="M551.529,281.003c0.732,0,1.426,0,2.071,0c1.002,13.881,0.851,42.468-7.109,96.034
						c-0.657,0.079-1.344,0.157-2.058,0.235C552.43,323.559,552.509,294.761,551.529,281.003z"/>
				</g>
			</g>
			<path style="fill:#323244;" d="M541.417,150.027c-11.744-9.137-27.533,0.857-26.619,12.564
				c0.913,11.707-11.352,27.269-5.611,34.979c5.741,7.71,16.05,5.14,18.007,1.571c1.957-3.569,14.223,8.566,22.574,0.286
				c0,0,16.18,0.857,11.874-18.132C557.336,162.306,557.728,146.743,541.417,150.027z"/>
			<g>
				<path style="fill:#9129E3;" d="M560.637,220.043c2.038-9.1-4.002-18.298-13.253-19.467c-0.632-0.08-1.261-0.121-1.881-0.121
					h-21.285c-7.651,0-13.848,6.26-13.8,13.911c0,0.055,0.001,0.11,0.001,0.166c0.016,1.493-0.339,2.97-1.065,4.275
					c-1.149,2.064-1.808,4.437-1.808,6.967c0,4.848,2.4,9.127,6.069,11.74c0.425,2.928,0.722,5.855,0.722,8.783
					c0,11.152-5.778,23.687-5.778,34.838c9.021,2.882,27.498,5.731,43.444,2.657c3.605-0.695,5.862-1.617,8.889-2.657l-6.111-34.949
					L560.637,220.043z"/>
				<path style="fill:#6A3999;" d="M517.453,238.116c26.444-4.556,26.888,6.667,13.5,6.444
					C517.564,244.338,517.453,238.116,517.453,238.116z"/>
				<path style="fill:#FFB692;" d="M544.969,203.168c0,2.96-4.822,5.359-10.771,5.359s-10.771-2.4-10.771-5.359
					s4.822-3.686,10.771-3.686S544.969,200.208,544.969,203.168z"/>
			</g>
			<g>
				<g>
					<path style="fill:#FFB692;" d="M542.472,200.698c0-22.223-3.596-10.674-8.032-10.674c-4.436,0-8.032-10.116-8.032,10.674
						c0,7.788,3.596,7.115,8.032,7.115C538.876,207.813,542.472,208.486,542.472,200.698z"/>
					<path style="fill:#D88D87;" d="M526.576,194.206c0.757-11.897,3.99-4.182,7.865-4.182c4.295,0,7.803-10.827,8.021,8.66
						C535.599,201.391,530.274,198.248,526.576,194.206z"/>
				</g>
				<g>
					<path style="fill:#FFB692;" d="M521.855,172.966c0.495,3.052-0.758,5.84-2.797,6.227c-2.04,0.387-4.094-1.774-4.589-4.826
						c-0.495-3.053,0.757-5.841,2.797-6.228C519.306,167.753,521.36,169.914,521.855,172.966z"/>
					<path style="fill:#D88D87;" d="M519.698,173.273c0.312-0.059,0.623-0.025,0.923,0.083c-0.007-0.051-0.011-0.101-0.019-0.152
						c-0.327-2.016-1.684-3.444-3.032-3.188c-1.347,0.256-2.175,2.098-1.848,4.114c0.251,1.55,1.112,2.749,2.109,3.106
						C517.569,175.279,518.385,173.522,519.698,173.273z"/>
				</g>
				<g>
					<path style="fill:none;stroke:#FBB03B;stroke-linecap:round;stroke-linejoin:round;stroke-miterlimit:10;" d="M521.783,181.449
						c0-2.576-1.333-4.664-2.976-4.664"/>
				</g>
				<path style="fill:#FFB692;" d="M537.315,150.715h-8.212c-6.408,0-11.65,5.243-11.65,11.65v16.96
					c0,8.948,7.321,16.269,16.269,16.269l0,0c8.948,0,16.269-7.321,16.269-16.269V163.39
					C549.991,156.419,544.287,150.715,537.315,150.715z"/>
				<path style="fill:#D88D87;" d="M517.453,162.591v-0.226c0-6.408,5.243-11.65,11.65-11.65h8.212
					c6.573,0,12.013,5.071,12.615,11.493C536.557,170.593,524.918,167.08,517.453,162.591z"/>
				<path style="fill:#323244;" d="M536.262,159.407c-7.944,11.5-20.139,9.908-23.611,1.5c-3.556-8.611,6.889-26.556,25.14-11.965
					c0,0,12.002-3.206,14.239,7.007c2.236,10.213-3.131,14.462-3.131,14.462s-4.324,0.298-4.622-8.498
					C544.277,161.913,537.157,163.879,536.262,159.407z"/>
				<path style="fill:#323244;" d="M540.97,168.582l-2.692-1.032c-0.833-0.32-1.253-1.262-0.933-2.095l0,0
					c0.319-0.833,1.262-1.253,2.095-0.933l2.691,1.032c0.833,0.32,1.253,1.262,0.933,2.095l0,0
					C542.745,168.481,541.803,168.901,540.97,168.582z"/>
				<path style="fill:#323244;" d="M528.095,167.744l-2.595,1.255c-0.803,0.388-1.778,0.049-2.166-0.754l0,0
					c-0.388-0.803-0.049-1.777,0.754-2.166l2.595-1.255c0.803-0.388,1.778-0.049,2.166,0.754l0,0
					C529.237,166.381,528.897,167.356,528.095,167.744z"/>
				<path style="fill:#B77D69;" d="M529.945,177.506c0,0,3.737,0.684,3.753,1.385c0.017,0.701-1.802,1.034-2.302,0.734
					C530.896,179.325,529.945,177.506,529.945,177.506z"/>
				<g>
					<path style="fill:#34344F;" d="M532.96,169.392c-0.399,0.835-0.787,1.678-1.136,2.535c-0.357,0.854-0.716,1.71-1.044,2.576
						c-0.33,0.865-0.66,1.731-0.958,2.605l-0.056,0.164c-0.007-0.012-0.032,0.148,0.004,0.256c0.031,0.093,0.053,0.103,0.083,0.156
						c0.108,0.144,0.202,0.216,0.299,0.301c0.19,0.16,0.394,0.281,0.593,0.407c0.407,0.238,0.826,0.447,1.277,0.599
						c-0.318-0.353-0.659-0.667-0.988-0.982c-0.167-0.153-0.328-0.314-0.478-0.465c-0.07-0.073-0.145-0.161-0.167-0.207
						c0.004,0.003-0.016-0.032,0.003,0.005c0.03,0.051-0.017,0.153,0.008,0.088l0.062-0.161c0.328-0.859,0.625-1.725,0.921-2.592
						c0.299-0.867,0.565-1.744,0.835-2.622C532.494,171.18,532.733,170.29,532.96,169.392z"/>
					<g>
						<path style="fill:#34344F;" d="M539.928,170.964c0,0.988-0.801,1.789-1.789,1.789c-0.988,0-1.789-0.801-1.789-1.789
							c0-0.988,0.801-1.789,1.789-1.789C539.127,169.175,539.928,169.977,539.928,170.964z"/>
						<path style="fill:#34344F;" d="M539.315,171.493c0.26,0.621,1.842,0.361,2.202-1.081l-0.921,0.26l-1.281-1.021V171.493z"/>
					</g>
					<g>
						<path style="fill:#34344F;" d="M528.357,170.964c0,0.988-0.801,1.789-1.789,1.789s-1.789-0.801-1.789-1.789
							c0-0.988,0.801-1.789,1.789-1.789S528.357,169.977,528.357,170.964z"/>
						<path style="fill:#34344F;" d="M525.424,171.493c-0.26,0.621-1.842,0.361-2.202-1.081l0.921,0.26l1.281-1.021V171.493z"/>
					</g>
				</g>
				<g>
					<path style="fill:#34344F;" d="M529.815,181.442c2.174-0.552,5.195-1.473,7.997-2.861c1.843-0.913,3.734,1.361,2.918,3.543
						c-0.869,2.322-2.567,4.58-5.87,5.183c-2.707,0.494-4.516-0.063-5.722-0.97C527.432,185.054,527.878,181.934,529.815,181.442z"
						/>
					<path style="fill:#EF8484;" d="M534.861,187.308c3.302-0.603,5.001-2.861,5.87-5.183c0.122-0.327,0.177-0.655,0.187-0.975
						c-1.232-0.423-2.829-0.492-4.899,0.166c-3.197,1.016-4.58,3.467-5.129,5.876c-0.001,0.005-0.001,0.009-0.002,0.014
						C531.931,187.518,533.23,187.606,534.861,187.308z"/>
					<path style="fill:#FFABAB;" d="M533.016,184.737c0.38,0.531,1.63,0.323,2.793-0.466c1.163-0.789,1.797-1.859,1.417-2.391
						c-0.38-0.531-1.631-0.323-2.793,0.466C533.27,183.135,532.636,184.206,533.016,184.737z"/>
					<path style="fill:#FFFFFF;" d="M529.815,181.442c2.174-0.552,5.195-1.473,7.997-2.861c1.132-0.561,2.279,0.083,2.809,1.167
						c-1.565,1.682-4.055,3.156-7.046,3.99c-1.918,0.535-3.796,0.737-5.479,0.649C527.967,183.107,528.594,181.752,529.815,181.442z
						"/>
				</g>
				<g>
					<path style="fill:#FFB692;" d="M547.401,172.26c-0.495,3.052,0.758,5.84,2.797,6.227c2.04,0.387,4.094-1.774,4.589-4.826
						c0.495-3.053-0.758-5.841-2.797-6.227C549.95,167.047,547.895,169.208,547.401,172.26z"/>
					<path style="fill:#D88D87;" d="M549.557,172.567c-0.312-0.059-0.623-0.025-0.923,0.083c0.007-0.051,0.011-0.101,0.02-0.152
						c0.327-2.016,1.684-3.444,3.032-3.188c1.348,0.256,2.175,2.098,1.848,4.114c-0.251,1.55-1.112,2.749-2.109,3.106
						C551.687,174.573,550.871,172.816,549.557,172.567z"/>
				</g>
			</g>
			<path style="fill:#4C4C72;" d="M555.121,155.434c-4.222,2.453-9.63,4.633-10.47,0.343c0,0-7.852,4.222-8.074-2.222
				c0,0-18.447,19.391-23.588-1.589c-1.136,2.873-1.348,5.965-0.521,8.423c7.164,6.449,13.517,4.293,23.147-4.241
				c0,0,0.074,4.445,8.222,1.482c0,0,1.266,5.526,11.843-1.086C555.5,156.161,555.316,155.789,555.121,155.434z"/>
			<g>
				<path style="fill:#FFB692;" d="M548.871,220.128l7.463-13.456l28.589,20.138c3.771,2.657,4.782,7.812,2.293,11.696
					l-24.107,37.616l-8.357-4.873l17.185-35.888L548.871,220.128z"/>
				<polygon style="fill:#D88D87;" points="571.167,217.12 556.333,206.671 548.87,220.128 566.597,231.835 				"/>
				<g>
					<path style="fill:#FFB692;" d="M560.69,277.335c-1.223,0.096-2.592-0.172-4.568-0.993c-0.755-0.314-1.441-0.763-2.107-1.238
						c-0.874-0.623-2.785-1.207-5.817,1.823c-3.826,3.823-9.438-5.247-9.096-9.267c0.342-4.019,6.788-8.124,9.439-7.953
						c2.651,0.171,11.512,2.224,11.512,2.224s4.513,5.919,4.028,11.902C563.934,275.661,562.518,277.19,560.69,277.335z"/>
					<path style="fill:#D88D87;" d="M543.353,276.562c1.434-2.348,4.108-6.609,4.848-6.979c1.026-0.513,7.611-0.299,8.979,1.155
						c0,0-6.873-1.08-7.857-0.096c-0.748,0.748-3.225,4.968-4.369,6.947C544.41,277.368,543.872,277.015,543.353,276.562z"/>
					<path style="fill:#D88D87;" d="M540.215,272.195c1.689-1.957,5.424-6.2,6.266-6.458c1.097-0.336,7.62-0.053,9.865,1.452
						c0,0-7.801-1.029-8.934-0.222c-0.976,0.695-5.062,5.702-6.175,7.076C540.856,273.45,540.511,272.826,540.215,272.195z"/>
					<path style="fill:#D88D87;" d="M555.499,264.025c0,0-7.505-1.916-8.729-1.255c-1.058,0.572-6.211,5.055-7.59,6.261
						c-0.081-0.496-0.111-0.961-0.076-1.371c0.024-0.28,0.08-0.561,0.16-0.841c2.021-1.82,5.906-5.238,6.733-5.384
						C547.127,261.237,553.46,262.486,555.499,264.025z"/>
				</g>
				<path style="fill:#6A3999;" d="M573.706,216.13l-11.785,15.3l-11.266-8.678c-4.225-3.254-5.012-9.318-1.757-13.542l0,0
					c3.254-4.225,9.318-5.012,13.542-1.757L573.706,216.13z"/>
			</g>
		</g>
	</g>
</g>
</svg>
